<svg width="291" height="288" viewBox="0 0 291 288" fill="none" xmlns="http://www.w3.org/2000/svg">
<path d="M49.5122 105.748C58.9583 105.748 67.92 107.449 76.3973 110.851C84.8746 114.253 92.6253 119.235 99.6493 125.796L235.533 256.059C237.395 257.843 239.874 258.84 242.453 258.84H247.154C251.272 258.84 254.723 257.442 257.508 254.648C260.294 251.853 261.686 248.391 261.686 244.26C261.686 242.316 261.505 240.25 261.142 238.063C260.778 235.876 259.507 233.689 257.327 231.502L192.51 166.473C191.412 165.371 190.586 164.029 190.098 162.553L167.943 95.5577C166.307 90.6084 161.143 87.7466 156.078 88.9825L138.16 93.3552C128.956 95.7853 120.6 94.0842 113.092 88.2522C105.583 82.4201 101.829 74.7656 101.829 65.2885V39.4958C101.829 36.5377 100.16 33.8328 97.5159 32.5065V32.5065C94.1263 30.8062 90.0054 31.7829 87.7396 34.8237L36.1059 104.119C35.8399 104.476 35.343 104.756 35.343 105.202V105.202V105.202C35.343 105.449 35.4013 105.748 35.6483 105.748H49.5122ZM49.5122 134.909H38.279C35.6837 134.909 33.9708 137.568 35.5247 139.647V139.647C36.6146 141.105 37.8862 142.442 39.3395 143.657L157.053 251.185C159.717 253.858 162.744 255.802 166.135 257.017C169.526 258.232 173.038 258.84 176.671 258.84V258.84C183.78 258.84 187.263 250.178 182.134 245.257L79.6671 146.937C75.5496 142.806 70.8871 139.769 65.6796 137.825C60.4721 135.881 55.083 134.909 49.5122 134.909ZM176.671 288C169.405 288 162.502 286.663 155.963 283.99C149.423 281.317 143.368 277.551 137.797 272.691L19.7206 165.162C8.57906 154.956 2.3422 142.442 1.01006 127.619C-0.322087 112.795 3.49269 99.3088 12.4544 87.1587L68.4045 12.071C72.522 6.48194 78.0322 2.77616 84.9352 0.953642C91.8381 -0.868874 98.4382 -0.079117 104.736 3.32291L114.908 8.42596C119.995 11.099 123.931 14.744 126.716 19.3611C129.501 23.9781 130.894 29.0811 130.894 34.6702V52.386C130.894 58.9212 137.06 63.7001 143.389 62.0699L157.779 58.3629C165.045 56.4189 172.07 57.3302 178.851 61.0967C185.633 64.8632 190.235 70.27 192.657 77.3171L215.53 146.514C216.018 147.991 216.844 149.333 217.942 150.435L278.036 210.725C282.88 215.585 286.21 220.81 288.027 226.399C289.843 231.988 290.751 237.942 290.751 244.26C290.751 256.41 286.513 266.737 278.036 275.242C269.558 283.747 259.264 288 247.154 288H176.671Z" fill="#FCBD3D"/>
</svg>
