<svg width="265" height="358" viewBox="0 0 265 358" fill="none" xmlns="http://www.w3.org/2000/svg">
<path d="M132.751 59.6667C124.563 59.6667 117.552 56.7455 111.721 50.9031C105.889 45.0608 102.974 38.0375 102.974 29.8333C102.974 21.6292 105.889 14.6059 111.721 8.76354C117.552 2.92118 124.563 0 132.751 0C140.94 0 147.951 2.92118 153.782 8.76354C159.613 14.6059 162.529 21.6292 162.529 29.8333C162.529 38.0375 159.613 45.0608 153.782 50.9031C147.951 56.7455 140.94 59.6667 132.751 59.6667ZM98.0848 283.417C92.562 283.417 88.0848 278.94 88.0848 273.417V113.617C88.0848 108.416 84.0982 104.093 78.9237 103.577C66.9974 102.385 54.9141 100.801 42.6737 98.8229C30.7597 96.8977 19.2922 94.5998 8.27102 91.9292C2.97034 90.6448 -0.190256 85.259 1.13024 79.9672L3.72855 69.5545C5.08362 64.1241 10.6284 60.8758 16.0711 62.1805C32.5173 66.1228 49.8219 69.0762 67.9848 71.0406C89.8218 73.4024 111.411 74.5833 132.751 74.5833C154.092 74.5833 175.681 73.4024 197.518 71.0406C215.681 69.0762 232.986 66.1228 249.432 62.1805C254.875 60.8758 260.419 64.1241 261.774 69.5545L264.373 79.9672C265.693 85.259 262.533 90.6448 257.232 91.9292C246.211 94.5998 234.743 96.8977 222.829 98.8229C210.589 100.801 198.506 102.385 186.579 103.577C181.405 104.093 177.418 108.416 177.418 113.617V273.417C177.418 278.94 172.941 283.417 167.418 283.417H157.64C152.118 283.417 147.64 278.94 147.64 273.417V203.917C147.64 198.394 143.163 193.917 137.64 193.917H127.863C122.34 193.917 117.863 198.394 117.863 203.917V273.417C117.863 278.94 113.385 283.417 107.863 283.417H98.0848ZM73.1959 358C68.9774 358 65.4413 356.57 62.5876 353.711C59.7339 350.852 58.307 347.31 58.307 343.083C58.307 338.857 59.7339 335.314 62.5876 332.455C65.4413 329.596 68.9774 328.167 73.1959 328.167C77.4144 328.167 80.9505 329.596 83.8042 332.455C86.6579 335.314 88.0848 338.857 88.0848 343.083C88.0848 347.31 86.6579 350.852 83.8042 353.711C80.9505 356.57 77.4144 358 73.1959 358ZM132.751 358C128.533 358 124.997 356.57 122.143 353.711C119.289 350.852 117.863 347.31 117.863 343.083C117.863 338.857 119.289 335.314 122.143 332.455C124.997 329.596 128.533 328.167 132.751 328.167C136.97 328.167 140.506 329.596 143.36 332.455C146.213 335.314 147.64 338.857 147.64 343.083C147.64 347.31 146.213 350.852 143.36 353.711C140.506 356.57 136.97 358 132.751 358ZM192.307 358C188.088 358 184.552 356.57 181.699 353.711C178.845 350.852 177.418 347.31 177.418 343.083C177.418 338.857 178.845 335.314 181.699 332.455C184.552 329.596 188.088 328.167 192.307 328.167C196.526 328.167 200.062 329.596 202.915 332.455C205.769 335.314 207.196 338.857 207.196 343.083C207.196 347.31 205.769 350.852 202.915 353.711C200.062 356.57 196.526 358 192.307 358Z" fill="#FCBD3D"/>
</svg>
