<svg width="417" height="298" viewBox="0 0 417 298" fill="none" xmlns="http://www.w3.org/2000/svg">
<path d="M33.9167 297.396C24.3146 297.396 16.0946 293.977 9.25677 287.139C4.89222 282.774 1.9206 277.847 0.341913 272.356C-1.18418 267.048 3.47715 262.479 9 262.479H68.8333C59.2312 262.479 51.0113 259.06 44.1734 252.222C37.3356 245.384 33.9167 237.164 33.9167 227.562V35.5207C33.9167 25.9186 37.3356 17.6986 44.1734 10.8608C51.0113 4.02293 59.2312 0.604004 68.8333 0.604004H348.167C357.769 0.604004 365.989 4.02293 372.827 10.8608C379.664 17.6986 383.083 25.9186 383.083 35.5207V227.562C383.083 237.164 379.664 245.384 372.827 252.222C365.989 259.06 357.769 262.479 348.167 262.479H408C413.523 262.479 418.184 267.048 416.658 272.356C415.079 277.847 412.108 282.774 407.743 287.139C400.905 293.977 392.685 297.396 383.083 297.396H33.9167ZM208.5 279.937C213.447 279.937 217.593 278.264 220.939 274.918C224.285 271.572 225.958 267.426 225.958 262.479C225.958 257.532 224.285 253.386 220.939 250.04C217.593 246.694 213.447 245.021 208.5 245.021C203.553 245.021 199.407 246.694 196.061 250.04C192.715 253.386 191.042 257.532 191.042 262.479C191.042 267.426 192.715 271.572 196.061 274.918C199.407 278.264 203.553 279.937 208.5 279.937ZM68.8333 217.562C68.8333 223.085 73.3105 227.562 78.8333 227.562H338.167C343.689 227.562 348.167 223.085 348.167 217.562V45.5207C348.167 39.9978 343.69 35.5207 338.167 35.5207H78.8333C73.3105 35.5207 68.8333 39.9978 68.8333 45.5207V217.562Z" fill="#FCBD3D"/>
</svg>
