<svg width="407" height="296" viewBox="0 0 407 296" fill="none" xmlns="http://www.w3.org/2000/svg">
<path d="M240.246 166.48C224.846 166.48 211.756 161.09 200.975 150.31C190.195 139.53 184.805 126.439 184.805 111.039C184.805 95.6386 190.195 82.5482 200.975 71.7679C211.756 60.9876 224.846 55.5975 240.246 55.5975C255.647 55.5975 268.737 60.9876 279.517 71.7679C290.298 82.5482 295.688 95.6386 295.688 111.039C295.688 126.439 290.298 139.53 279.517 150.31C268.737 161.09 255.647 166.48 240.246 166.48ZM110.883 221.922C100.719 221.922 92.0175 218.303 84.7793 211.065C77.5411 203.826 73.922 195.125 73.922 184.961V37.117C73.922 26.9527 77.5411 18.2515 84.7793 11.0133C92.0175 3.7751 100.719 0.156006 110.883 0.156006H369.61C379.774 0.156006 388.475 3.7751 395.714 11.0133C402.952 18.2515 406.571 26.9527 406.571 37.117V184.961C406.571 195.125 402.952 203.826 395.714 211.065C388.475 218.303 379.774 221.922 369.61 221.922H110.883ZM146.581 175.07C148.017 180.403 152.321 184.961 157.844 184.961H322.649C328.172 184.961 332.476 180.403 333.912 175.07C335.539 169.031 338.737 163.626 343.506 158.857C348.275 154.088 353.68 150.89 359.719 149.263C365.052 147.827 369.61 143.523 369.61 138V84.078C369.61 78.5551 365.052 74.2511 359.719 72.8146C353.68 71.1877 348.275 67.9898 343.506 63.2207C338.737 58.4516 335.539 53.0474 333.912 47.008C332.476 41.6753 328.172 37.117 322.649 37.117H157.844C152.321 37.117 148.017 41.6753 146.581 47.008C144.954 53.0474 141.756 58.4516 136.987 63.2207C132.218 67.9898 126.813 71.1877 120.774 72.8146C115.441 74.2511 110.883 78.5551 110.883 84.078V138C110.883 143.523 115.441 147.827 120.774 149.263C126.813 150.89 132.218 154.088 136.987 158.857C141.756 163.626 144.954 169.031 146.581 175.07ZM351.129 285.844C351.129 291.367 346.652 295.844 341.129 295.844H36.961C26.7967 295.844 18.0955 292.225 10.8573 284.987C3.6191 277.748 0 269.047 0 258.883V65.5975C0 60.0746 4.47715 55.5975 10 55.5975H26.961C32.4838 55.5975 36.961 60.0746 36.961 65.5975V248.883C36.961 254.406 41.4381 258.883 46.961 258.883H341.129C346.652 258.883 351.129 263.36 351.129 268.883V285.844Z" fill="#FCBD3D"/>
</svg>
