<svg width="297" height="370" viewBox="0 0 297 370" fill="none" xmlns="http://www.w3.org/2000/svg">
<path d="M37.7125 369.805C27.5482 369.805 18.8469 366.186 11.6088 358.948C4.37056 351.709 0.751465 343.008 0.751465 332.844V37.1561C0.751465 26.9918 4.37056 18.2906 11.6088 11.0524C18.8469 3.81416 27.5482 0.195068 37.7125 0.195068H286.439C291.962 0.195068 296.439 4.67222 296.439 10.1951V27.1561C296.439 32.6789 291.962 37.1561 286.439 37.1561H269.478C263.956 37.1561 259.478 41.6332 259.478 47.1561V74.117C259.478 79.3532 257.707 83.7423 254.165 87.2844C250.623 90.8265 246.234 92.5975 240.998 92.5975H93.1539C87.9178 92.5975 83.5287 90.8265 79.9866 87.2844C76.4445 83.7423 74.6734 79.3532 74.6734 74.117V47.1561C74.6734 41.6332 70.1963 37.1561 64.6734 37.1561H47.7125C42.1896 37.1561 37.7125 41.6332 37.7125 47.1561V322.844C37.7125 328.367 42.1896 332.844 47.7125 332.844H81.2194C90.9605 332.844 96.1596 318.703 90.611 310.696C88.5206 307.68 86.5962 304.513 84.8377 301.196C78.0615 288.414 74.6734 274.322 74.6734 258.922V176.52C74.6734 170.997 79.1506 166.52 84.6734 166.52H249.478C255.001 166.52 259.478 170.997 259.478 176.52V258.922C259.478 274.322 256.09 288.414 249.314 301.196C247.556 304.513 245.631 307.68 243.541 310.696C237.992 318.703 243.191 332.844 252.932 332.844H286.439C291.962 332.844 296.439 337.321 296.439 342.844V359.805C296.439 365.328 291.962 369.805 286.439 369.805H37.7125ZM167.076 314.363C182.476 314.363 195.567 308.973 206.347 298.193C217.127 287.413 222.517 274.322 222.517 258.922V213.48C222.517 207.958 218.04 203.48 212.517 203.48H121.634C116.112 203.48 111.634 207.958 111.634 213.48V258.922C111.634 274.322 117.025 287.413 127.805 298.193C138.585 308.973 151.676 314.363 167.076 314.363ZM167.076 148.039C172.312 148.039 176.701 146.268 180.243 142.726C183.785 139.184 185.556 134.795 185.556 129.559C185.556 124.322 183.785 119.933 180.243 116.391C176.701 112.849 172.312 111.078 167.076 111.078C161.84 111.078 157.451 112.849 153.909 116.391C150.366 119.933 148.595 124.322 148.595 129.559C148.595 134.795 150.366 139.184 153.909 142.726C157.451 146.268 161.84 148.039 167.076 148.039Z" fill="#FCBD3D"/>
</svg>
