<svg width="407" height="296" viewBox="0 0 407 296" fill="none" xmlns="http://www.w3.org/2000/svg">
<path d="M10.1807 295.844C4.65781 295.844 0.180664 291.367 0.180664 285.844V221.922C0.180664 211.45 3.79976 202.671 11.038 195.587C18.2761 188.503 26.9774 184.961 37.1417 184.961H97.6653C103.825 184.961 109.678 186.501 115.222 189.581C120.766 192.661 125.232 196.819 128.62 202.055C137.552 214.068 148.564 223.462 161.654 230.238C174.744 237.014 188.682 240.402 203.466 240.402C218.559 240.402 232.65 237.014 245.74 230.238C258.831 223.462 269.688 214.068 278.312 202.055C282.316 196.819 287.013 192.661 292.403 189.581C297.794 186.501 303.415 184.961 309.267 184.961H369.791C380.263 184.961 389.041 188.503 396.125 195.587C403.209 202.671 406.752 211.45 406.752 221.922V285.844C406.752 291.367 402.274 295.844 396.752 295.844H287.388C281.865 295.844 277.388 291.367 277.388 285.844V273.233C277.388 265.099 268.044 260.192 260.786 263.862C254.909 266.834 248.816 269.332 242.506 271.357C230.032 275.361 217.018 277.363 203.466 277.363C190.222 277.363 177.285 275.284 164.657 271.126C158.245 269.015 152.07 266.447 146.134 263.422C138.887 259.729 129.544 264.637 129.544 272.771V285.844C129.544 291.367 125.067 295.844 119.544 295.844H10.1807ZM203.466 221.922C191.762 221.922 180.673 219.227 170.201 213.837C159.729 208.447 150.951 200.977 143.867 191.429C138.63 183.729 132.085 177.646 124.231 173.18C121.519 171.638 118.725 170.362 115.848 169.352C108.53 166.784 104.319 158.365 110.574 153.78C118.239 148.162 128.566 143.386 141.556 139.453C163.425 132.831 184.062 129.519 203.466 129.519C222.871 129.519 243.507 132.831 265.376 139.453C278.366 143.386 288.693 148.162 296.358 153.78C302.613 158.365 298.407 166.842 291.105 169.454C288.329 170.447 285.605 171.689 282.932 173.18C274.924 177.646 268.302 183.729 263.066 191.429C256.29 201.285 247.665 208.832 237.193 214.068C226.721 219.304 215.478 221.922 203.466 221.922ZM55.6221 166.48C40.2217 166.48 27.1314 161.09 16.3511 150.31C5.57081 139.53 0.180664 126.439 0.180664 111.039C0.180664 95.3306 5.57081 82.1632 16.3511 71.5369C27.1314 60.9106 40.2217 55.5975 55.6221 55.5975C71.3306 55.5975 84.4979 60.9106 95.1242 71.5369C105.75 82.1632 111.064 95.3306 111.064 111.039C111.064 126.439 105.75 139.53 95.1242 150.31C84.4979 161.09 71.3306 166.48 55.6221 166.48ZM351.31 166.48C335.91 166.48 322.819 161.09 312.039 150.31C301.259 139.53 295.869 126.439 295.869 111.039C295.869 95.3306 301.259 82.1632 312.039 71.5369C322.819 60.9106 335.91 55.5975 351.31 55.5975C367.018 55.5975 380.186 60.9106 390.812 71.5369C401.438 82.1632 406.752 95.3306 406.752 111.039C406.752 126.439 401.438 139.53 390.812 150.31C380.186 161.09 367.018 166.48 351.31 166.48ZM203.466 111.039C188.066 111.039 174.975 105.649 164.195 94.8685C153.415 84.0882 148.025 70.9979 148.025 55.5975C148.025 39.8891 153.415 26.7217 164.195 16.0954C174.975 5.46915 188.066 0.156006 203.466 0.156006C219.175 0.156006 232.342 5.46915 242.968 16.0954C253.594 26.7217 258.908 39.8891 258.908 55.5975C258.908 70.9979 253.594 84.0882 242.968 94.8685C232.342 105.649 219.175 111.039 203.466 111.039Z" fill="#FCBD3D"/>
</svg>
