<svg width="371" height="352" viewBox="0 0 371 352" fill="none" xmlns="http://www.w3.org/2000/svg">
<path d="M10.5708 351.565C5.04796 351.565 0.570801 347.088 0.570801 341.565V324.604C0.570801 319.081 5.04795 314.604 10.5708 314.604H156.895C162.418 314.604 166.895 310.127 166.895 304.604V115.205C166.895 110.943 164.149 107.232 160.327 105.347C155.034 102.736 150.293 99.3363 146.105 95.1478C141.916 90.9594 138.517 86.2187 135.906 80.9258C134.021 77.1034 130.31 74.3573 126.048 74.3573H89.6582C82.479 74.3573 77.6387 81.6978 80.4667 88.2965L129.126 201.834C129.659 203.079 129.947 204.421 129.896 205.774C129.356 220.288 123.055 232.694 110.992 242.992C98.3634 253.772 83.117 259.162 65.2525 259.162C47.388 259.162 32.1416 253.772 19.5133 242.992C7.45009 232.694 1.14857 220.288 0.608735 205.774C0.558398 204.421 0.845878 203.079 1.37935 201.834L50.0383 88.2965C52.8663 81.6978 48.026 74.3573 40.8469 74.3573H29.0513C23.5285 74.3573 19.0513 69.8801 19.0513 64.3573V47.3963C19.0513 41.8734 23.5284 37.3963 29.0513 37.3963H126.025C130.298 37.3963 134.014 34.6348 135.91 30.8058C139.801 22.9514 145.509 16.293 153.035 10.8306C162.583 3.9004 173.363 0.435303 185.376 0.435303C197.388 0.435303 208.168 3.9004 217.717 10.8306C225.243 16.293 230.951 22.9514 234.841 30.8058C236.737 34.6348 240.453 37.3963 244.726 37.3963H341.7C347.223 37.3963 351.7 41.8734 351.7 47.3963V64.3573C351.7 69.8801 347.223 74.3573 341.7 74.3573H329.905C322.725 74.3573 317.885 81.6978 320.713 88.2965L369.372 201.834C369.906 203.079 370.193 204.421 370.143 205.774C369.603 220.288 363.301 232.694 351.238 242.992C338.61 253.772 323.363 259.162 305.499 259.162C287.634 259.162 272.388 253.772 259.76 242.992C247.697 232.694 241.395 220.288 240.855 205.774C240.805 204.421 241.092 203.079 241.626 201.834L290.285 88.2965C293.113 81.6978 288.272 74.3573 281.093 74.3573H244.704C240.442 74.3573 236.731 77.1034 234.846 80.9258C232.235 86.2187 228.835 90.9594 224.647 95.1478C220.458 99.3363 215.718 102.736 210.425 105.347C206.602 107.232 203.856 110.943 203.856 115.205V304.604C203.856 310.127 208.333 314.604 213.856 314.604H360.181C365.703 314.604 370.181 319.081 370.181 324.604V341.565C370.181 347.088 365.704 351.565 360.181 351.565H10.5708ZM276.865 189.762C274.019 196.363 278.86 203.721 286.048 203.721H324.95C332.138 203.721 336.979 196.363 334.133 189.762L314.682 144.636C311.21 136.58 299.788 136.58 296.316 144.636L276.865 189.762ZM36.6181 189.762C33.7728 196.363 38.6133 203.721 45.8013 203.721H84.7037C91.8918 203.721 96.7322 196.363 93.8869 189.762L74.4358 144.636C70.9635 136.58 59.5415 136.58 56.0693 144.636L36.6181 189.762ZM185.376 74.3573C190.612 74.3573 195.001 72.5862 198.543 69.0441C202.085 65.502 203.856 61.1129 203.856 55.8768C203.856 50.6406 202.085 46.2515 198.543 42.7094C195.001 39.1673 190.612 37.3963 185.376 37.3963C180.14 37.3963 175.75 39.1673 172.208 42.7094C168.666 46.2515 166.895 50.6406 166.895 55.8768C166.895 61.1129 168.666 65.502 172.208 69.0441C175.75 72.5862 180.14 74.3573 185.376 74.3573Z" fill="#FCBD3D"/>
</svg>
