<svg width="371" height="370" viewBox="0 0 371 370" fill="none" xmlns="http://www.w3.org/2000/svg">
<path d="M185.244 369.805C159.68 369.805 135.655 364.954 113.17 355.252C90.6859 345.549 71.1273 332.382 54.4949 315.749C37.8625 299.117 24.6951 279.559 14.9928 257.074C5.29058 234.589 0.439453 210.565 0.439453 185C0.439453 159.435 5.29058 135.411 14.9928 112.926C24.6951 90.4415 37.8625 70.883 54.4949 54.2505C71.1273 37.6181 90.6859 24.4507 113.17 14.7485C135.655 5.0462 159.68 0.195068 185.244 0.195068C210.809 0.195068 234.834 5.0462 257.318 14.7485C279.803 24.4507 299.361 37.6181 315.994 54.2505C332.626 70.883 345.794 90.4415 355.496 112.926C365.198 135.411 370.049 159.435 370.049 185C370.049 210.565 365.198 234.589 355.496 257.074C345.794 279.559 332.626 299.117 315.994 315.749C299.361 332.382 279.803 345.549 257.318 355.252C234.834 364.954 210.809 369.805 185.244 369.805ZM185.244 332.844C226.517 332.844 261.476 318.522 290.121 289.877C318.766 261.232 333.088 226.273 333.088 185C333.088 143.727 318.766 108.768 290.121 80.1232C261.476 51.4784 226.517 37.1561 185.244 37.1561C143.971 37.1561 109.012 51.4784 80.3676 80.1232C51.7228 108.768 37.4004 143.727 37.4004 185C37.4004 226.273 51.7228 261.232 80.3676 289.877C109.012 318.522 143.971 332.844 185.244 332.844ZM185.244 295.883C154.444 295.883 128.263 285.103 106.702 263.542C85.1417 241.982 74.3614 215.801 74.3614 185C74.3614 154.199 85.1417 128.018 106.702 106.458C128.263 84.8973 154.444 74.117 185.244 74.117C216.045 74.117 242.226 84.8973 263.786 106.458C285.347 128.018 296.127 154.199 296.127 185C296.127 215.801 285.347 241.982 263.786 263.542C242.226 285.103 216.045 295.883 185.244 295.883ZM185.244 258.922C205.573 258.922 222.975 251.684 237.452 237.207C251.928 222.731 259.166 205.329 259.166 185C259.166 164.671 251.928 147.269 237.452 132.793C222.975 118.316 205.573 111.078 185.244 111.078C164.916 111.078 147.513 118.316 133.037 132.793C118.561 147.269 111.322 164.671 111.322 185C111.322 205.329 118.561 222.731 133.037 237.207C147.513 251.684 164.916 258.922 185.244 258.922ZM185.244 221.961C175.08 221.961 166.379 218.342 159.141 211.104C151.902 203.866 148.283 195.164 148.283 185C148.283 174.836 151.902 166.134 159.141 158.896C166.379 151.658 175.08 148.039 185.244 148.039C195.409 148.039 204.11 151.658 211.348 158.896C218.586 166.134 222.205 174.836 222.205 185C222.205 195.164 218.586 203.866 211.348 211.104C204.11 218.342 195.409 221.961 185.244 221.961Z" fill="#FCBD3D"/>
</svg>
