<svg width="117" height="77" viewBox="0 0 117 77" fill="none" xmlns="http://www.w3.org/2000/svg">
<path d="M26.4969 61.6L48.0375 39.8475L42.5094 34.265L26.4016 50.5312L18.3953 42.4462L12.9625 47.9325L26.4969 61.6ZM7.625 77C5.52812 77 3.73307 76.246 2.23984 74.7381C0.746615 73.2302 0 71.4175 0 69.3V7.7C0 5.5825 0.746615 3.76979 2.23984 2.26187C3.73307 0.753958 5.52812 0 7.625 0H38.125L61 23.1V69.3C61 71.4175 60.2534 73.2302 58.7602 74.7381C57.2669 76.246 55.4719 77 53.375 77H7.625ZM34.3125 26.95V7.7H7.625V69.3H53.375V26.95H34.3125Z" fill="#FCBB40"/>
<path d="M81.9416 8.53558H103.481C108.739 8.53558 113 12.7973 113 18.0545V38.6152C113 55.5663 99.099 69.3476 82.104 69.3476C65.2892 69.3476 51.5356 55.7125 51.5356 38.9416C51.5356 22.1488 65.1488 8.53558 81.9416 8.53558Z" fill="white"/>
<path d="M81.9416 8.53558H103.481C108.739 8.53558 113 12.7973 113 18.0545V38.6152C113 55.5663 99.099 69.3476 82.104 69.3476C65.2892 69.3476 51.5356 55.7125 51.5356 38.9416C51.5356 22.1488 65.1488 8.53558 81.9416 8.53558Z" stroke="#323237" stroke-width="7.07117"/>
<path d="M69.8906 47.7431V42.9414L84.1646 22.5125H91.2798V42.4176H95.1212V47.7431H91.2798V53.9416H85.1686V47.7431H69.8906ZM85.5615 29.0602L76.6129 42.4176H85.5615V29.0602Z" fill="#323237"/>
</svg>
