<svg width="120" height="69" viewBox="0 0 120 69" fill="none" xmlns="http://www.w3.org/2000/svg">
<path d="M23.8 41.65C22.61 41.65 21.6042 41.2392 20.7825 40.4175C19.9608 39.5958 19.55 38.59 19.55 37.4C19.55 36.21 19.9608 35.2042 20.7825 34.3825C21.6042 33.5608 22.61 33.15 23.8 33.15C24.99 33.15 25.9958 33.5608 26.8175 34.3825C27.6392 35.2042 28.05 36.21 28.05 37.4C28.05 38.59 27.6392 39.5958 26.8175 40.4175C25.9958 41.2392 24.99 41.65 23.8 41.65ZM44.2 41.65C43.01 41.65 42.0042 41.2392 41.1825 40.4175C40.3608 39.5958 39.95 38.59 39.95 37.4C39.95 36.21 40.3608 35.2042 41.1825 34.3825C42.0042 33.5608 43.01 33.15 44.2 33.15C45.39 33.15 46.3958 33.5608 47.2175 34.3825C48.0392 35.2042 48.45 36.21 48.45 37.4C48.45 38.59 48.0392 39.5958 47.2175 40.4175C46.3958 41.2392 45.39 41.65 44.2 41.65ZM34 61.2C41.5933 61.2 48.025 58.565 53.295 53.295C58.565 48.025 61.2 41.5933 61.2 34C61.2 32.64 61.115 31.3225 60.945 30.0475C60.775 28.7725 60.4633 27.54 60.01 26.35C58.82 26.6333 57.63 26.8458 56.44 26.9875C55.25 27.1292 54.0033 27.2 52.7 27.2C47.5433 27.2 42.67 26.095 38.08 23.885C33.49 21.675 29.58 18.5867 26.35 14.62C24.5367 19.04 21.9442 22.8792 18.5725 26.1375C15.2008 29.3958 11.2767 31.8467 6.8 33.49V34C6.8 41.5933 9.435 48.025 14.705 53.295C19.975 58.565 26.4067 61.2 34 61.2ZM34 68C29.2967 68 24.8767 67.1075 20.74 65.3225C16.6033 63.5375 13.005 61.115 9.945 58.055C6.885 54.995 4.4625 51.3967 2.6775 47.26C0.8925 43.1233 0 38.7033 0 34C0 29.2967 0.8925 24.8767 2.6775 20.74C4.4625 16.6033 6.885 13.005 9.945 9.945C13.005 6.885 16.6033 4.4625 20.74 2.6775C24.8767 0.8925 29.2967 0 34 0C38.7033 0 43.1233 0.8925 47.26 2.6775C51.3967 4.4625 54.995 6.885 58.055 9.945C61.115 13.005 63.5375 16.6033 65.3225 20.74C67.1075 24.8767 68 29.2967 68 34C68 38.7033 67.1075 43.1233 65.3225 47.26C63.5375 51.3967 61.115 54.995 58.055 58.055C54.995 61.115 51.3967 63.5375 47.26 65.3225C43.1233 67.1075 38.7033 68 34 68ZM29.41 7.225C31.79 11.1917 35.02 14.3792 39.1 16.7875C43.18 19.1958 47.7133 20.4 52.7 20.4C53.4933 20.4 54.2583 20.3575 54.995 20.2725C55.7317 20.1875 56.4967 20.0883 57.29 19.975C54.91 16.0083 51.68 12.8208 47.6 10.4125C43.52 8.00417 38.9867 6.8 34 6.8C33.2067 6.8 32.4417 6.8425 31.705 6.9275C30.9683 7.0125 30.2033 7.11167 29.41 7.225ZM8.245 25.415C11.135 23.7717 13.6567 21.6467 15.81 19.04C17.9633 16.4333 19.5783 13.515 20.655 10.285C17.765 11.9283 15.2433 14.0533 13.09 16.66C10.9367 19.2667 9.32167 22.185 8.245 25.415Z" fill="#FCBB40"/>
<path d="M66.0039 3.81903H85.5982C102.391 3.81903 116.004 17.4323 116.004 34.2251C116.004 50.9959 102.251 64.6311 85.4358 64.6311C68.4408 64.6311 54.5395 50.8498 54.5395 33.8987V15.2834C54.5395 8.95183 59.6723 3.81903 66.0039 3.81903Z" fill="white"/>
<path d="M66.0039 3.81903H85.5982C102.391 3.81903 116.004 17.4323 116.004 34.2251C116.004 50.9959 102.251 64.6311 85.4358 64.6311C68.4408 64.6311 54.5395 50.8498 54.5395 33.8987V15.2834C54.5395 8.95183 59.6723 3.81903 66.0039 3.81903Z" stroke="#323237" stroke-width="7.07117"/>
<path d="M78.9365 23.0341V17.4031H89.4565V49.2251H83.1707V23.0341H78.9365Z" fill="#323237"/>
</svg>
