<svg width="141" height="72" viewBox="0 0 141 72" fill="none" xmlns="http://www.w3.org/2000/svg">
<path d="M61.0909 24.6667H68.7273V17.1111H61.0909V24.6667ZM61.0909 39.7778H68.7273V32.2222H61.0909V39.7778ZM61.0909 54.8889H68.7273V47.3333H61.0909V54.8889ZM61.0909 70V62.4444H76.3636V9.55556H42V14.8444L34.3636 9.36667V2H84V70H61.0909ZM0 70V32.2222L26.7273 13.3333L53.4545 32.2222V70H30.5455V51.1111H22.9091V70H0ZM7.63636 62.4444H15.2727V43.5556H38.1818V62.4444H45.8182V36L26.7273 22.5889L7.63636 36V62.4444Z" fill="#FCBB40"/>
<path d="M137.004 37.3264V55.9416C137.004 62.2733 131.871 67.406 125.54 67.406H105.946C89.1528 67.406 75.5395 53.7928 75.5395 37C75.5395 20.2292 89.2931 6.59399 106.108 6.59399C123.103 6.59399 137.004 20.3753 137.004 37.3264Z" fill="white"/>
<path d="M137.004 37.3264V55.9416C137.004 62.2733 131.871 67.406 125.54 67.406H105.946C89.1528 67.406 75.5395 53.7928 75.5395 37C75.5395 20.2292 89.2931 6.59399 106.108 6.59399C123.103 6.59399 137.004 20.3753 137.004 37.3264Z" stroke="#323237" stroke-width="7.07117"/>
<path d="M95.6078 28.5591C95.7533 25.649 96.7718 23.4083 98.6634 21.8368C100.584 20.2362 103.101 19.436 106.215 19.436C108.339 19.436 110.158 19.8143 111.672 20.5709C113.185 21.2984 114.32 22.3024 115.076 23.5829C115.862 24.8342 116.255 26.2602 116.255 27.8607C116.255 29.6941 115.775 31.251 114.814 32.5314C113.883 33.7828 112.763 34.6267 111.453 35.0632V35.2378C113.141 35.7616 114.451 36.6929 115.382 38.0315C116.342 39.3702 116.822 41.0871 116.822 43.1824C116.822 44.9285 116.415 46.4854 115.6 47.8531C114.814 49.2209 113.636 50.2976 112.064 51.0833C110.522 51.84 108.66 52.2183 106.477 52.2183C103.189 52.2183 100.511 51.3889 98.4451 49.7301C96.379 48.0714 95.2877 45.6269 95.1713 42.3967H101.108C101.166 43.8226 101.646 44.9721 102.548 45.8451C103.48 46.6891 104.746 47.111 106.346 47.111C107.83 47.111 108.965 46.7036 109.751 45.8888C110.566 45.0449 110.973 43.9681 110.973 42.6586C110.973 40.9125 110.42 39.6612 109.314 38.9046C108.209 38.1479 106.492 37.7696 104.163 37.7696H102.898V32.7497H104.163C108.296 32.7497 110.362 31.3674 110.362 28.6028C110.362 27.3514 109.984 26.3766 109.227 25.6781C108.5 24.9797 107.437 24.6305 106.041 24.6305C104.673 24.6305 103.611 25.0088 102.854 25.7654C102.126 26.493 101.704 27.4242 101.588 28.5591H95.6078Z" fill="#323237"/>
</svg>
