<svg width="126" height="81" viewBox="0 0 126 81" fill="none" xmlns="http://www.w3.org/2000/svg">
<path d="M32.2698 59.58H48.1564V51.0686H32.2698V59.58ZM32.2698 42.5572H60.0714V34.0457H32.2698V42.5572ZM20.3548 25.5343H60.0714V17.0229H20.3548V25.5343ZM18.8654 80.8586C13.636 80.8586 9.18447 78.8903 5.51068 74.9538C1.83689 71.0173 0 66.2473 0 60.644C0 56.601 0.976368 52.9837 2.9291 49.7919C4.88184 46.6001 7.44687 44.1885 10.6242 42.5572H0.496458V34.0457H24.3264V59.58H16.3831V49.2599C13.9339 49.8273 11.915 51.175 10.3263 53.3028C8.73766 55.4307 7.94333 57.8777 7.94333 60.644C7.94333 63.9067 9.01899 66.6729 11.1703 68.9426C13.3216 71.2123 15.8867 72.3472 18.8654 72.3472V80.8586ZM32.2698 76.6029V68.0915H68.0148V8.51143H12.4115V25.5343H4.46812V8.51143C4.46812 6.17079 5.24591 4.16706 6.80148 2.50023C8.35704 0.833411 10.227 0 12.4115 0H68.0148C70.1992 0 72.0692 0.833411 73.6247 2.50023C75.1803 4.16706 75.9581 6.17079 75.9581 8.51143V68.0915C75.9581 70.4321 75.1803 72.4358 73.6247 74.1027C72.0692 75.7695 70.1992 76.6029 68.0148 76.6029H32.2698Z" fill="#FCBB40"/>
<path d="M90.8537 3.53558H112.394C117.651 3.53558 121.912 7.79734 121.912 13.0545V33.6152C121.912 50.5663 108.011 64.3476 91.0161 64.3476C74.2013 64.3476 60.4477 50.7125 60.4477 33.9416C60.4477 17.1488 74.0609 3.53558 90.8537 3.53558Z" fill="white"/>
<path d="M90.8537 3.53558H112.394C117.651 3.53558 121.912 7.79734 121.912 13.0545V33.6152C121.912 50.5663 108.011 64.3476 91.0161 64.3476C74.2013 64.3476 60.4477 50.7125 60.4477 33.9416C60.4477 17.1488 74.0609 3.53558 90.8537 3.53558Z" stroke="#323237" stroke-width="7.07117"/>
<path d="M82.8822 42.0447C85.6759 39.7166 87.9021 37.7814 89.5609 36.239C91.2197 34.6676 92.602 33.0379 93.7078 31.3501C94.8136 29.6622 95.3666 28.0034 95.3666 26.3738C95.3666 24.8896 95.0173 23.7256 94.3189 22.8817C93.6205 22.0377 92.5438 21.6158 91.0887 21.6158C89.6337 21.6158 88.5133 22.1105 87.7275 23.0999C86.9418 24.0602 86.5344 25.3843 86.5053 27.0722H80.5687C80.6851 23.5801 81.7182 20.9319 83.6679 19.1276C85.6468 17.3234 88.1495 16.4212 91.176 16.4212C94.4935 16.4212 97.0399 17.3088 98.815 19.084C100.59 20.83 101.478 23.1436 101.478 26.0246C101.478 28.2944 100.867 30.4625 99.6444 32.5286C98.4222 34.5948 97.0253 36.3991 95.4539 37.9414C93.8824 39.4547 91.8308 41.2881 89.299 43.4415H102.176V48.5051H80.6123V43.9653L82.8822 42.0447Z" fill="#323237"/>
</svg>
