<?xml version="1.0" encoding="UTF-8"?>
<svg id="Layer_2" data-name="Layer 2" xmlns="http://www.w3.org/2000/svg" viewBox="0 0 347.234 260.553">
  <defs>
    <style>
      .cls-1, .cls-2 {
        fill: none;
      }

      .cls-1, .cls-2, .cls-3, .cls-4 {
        stroke-linecap: round;
        stroke-linejoin: round;
        stroke-width: 12px;
      }

      .cls-1, .cls-5, .cls-3, .cls-4 {
        stroke: #3b3b3c;
      }

      .cls-6 {
        fill: #3b3b3c;
      }

      .cls-6, .cls-7, .cls-8 {
        stroke-width: 0px;
      }

      .cls-7, .cls-3 {
        fill: #fbbb4e;
      }

      .cls-2 {
        stroke: #414042;
      }

      .cls-5 {
        stroke-miterlimit: 10;
        stroke-width: 10px;
      }

      .cls-5, .cls-8, .cls-4 {
        fill: #fff;
      }
    </style>
  </defs>
  <g id="Layer_2-2" data-name="Layer 2">
    <rect class="cls-7" x="183.856" y="139.691" width="91.915" height="65.872"/>
    <g>
      <rect class="cls-8" x="182.188" y="165.155" width="97.677" height="11.745" transform="translate(-53.269 213.453) rotate(-45)"/>
      <rect class="cls-8" x="200.648" y="173.559" width="87.025" height="5.904" transform="translate(-53.299 224.347) rotate(-45)"/>
    </g>
    <g>
      <rect class="cls-1" x="38.936" y="101.681" width="265.787" height="152.553"/>
      <rect class="cls-6" x="55.021" width="127.101" height="105.638" rx="8.274" ry="8.274"/>
      <path class="cls-4" d="M38.532,61.487h36.958v39.308c0,10.199-8.28,18.479-18.479,18.479h0c-10.199,0-18.479-8.28-18.479-18.479v-39.308h0Z"/>
      <path class="cls-3" d="M76.362,61.487h36.958v39.308c0,10.199-8.28,18.479-18.479,18.479h0c-10.199,0-18.479-8.28-18.479-18.479v-39.308h0Z"/>
      <path class="cls-4" d="M76.362,61.487h36.958v39.308c0,10.199-8.28,18.479-18.479,18.479h0c-10.199,0-18.479-8.28-18.479-18.479v-39.308h0Z"/>
      <path class="cls-4" d="M115.286,61.487h36.958v39.308c0,10.199-8.28,18.479-18.479,18.479h0c-10.199,0-18.479-8.28-18.479-18.479v-39.308h0Z"/>
      <path class="cls-4" d="M152.994,61.487h36.958v39.308c0,10.199-8.28,18.479-18.479,18.479h0c-10.199,0-18.479-8.28-18.479-18.479v-39.308h0Z"/>
      <path class="cls-4" d="M191.106,61.487h36.958v39.308c0,10.199-8.28,18.479-18.479,18.479h0c-10.199,0-18.479-8.28-18.479-18.479v-39.308h0Z"/>
      <path class="cls-4" d="M230.547,61.487h36.958v39.308c0,10.199-8.28,18.479-18.479,18.479h0c-10.199,0-18.479-8.28-18.479-18.479v-39.308h0Z"/>
      <path class="cls-5" d="M268.659,61.487h36.958v39.308c0,10.199-8.28,18.479-18.479,18.479h0c-10.199,0-18.479-8.28-18.479-18.479v-39.308h0Z"/>
      <line class="cls-2" x1="6" y1="254.553" x2="341.234" y2="254.553"/>
      <rect class="cls-1" x="72.064" y="138.511" width="73.787" height="115.66"/>
      <line class="cls-1" x1="124.915" y1="190.596" x2="130.149" y2="190.596"/>
      <rect class="cls-1" x="185.473" y="138.303" width="87.83" height="67.149"/>
      <path class="cls-1" d="M177.686,207.622h102.447v7.564c0,4.809-3.904,8.713-8.713,8.713h-85.021c-4.809,0-8.713-3.904-8.713-8.713v-7.564h0Z"/>
      <line class="cls-3" x1="205.293" y1="27.191" x2="205.293" y2="60"/>
      <line class="cls-3" x1="229.548" y1="27.191" x2="229.548" y2="60"/>
      <line class="cls-3" x1="255.718" y1="27.191" x2="255.718" y2="60"/>
      <line class="cls-3" x1="279.973" y1="27.191" x2="279.973" y2="60"/>
      <line class="cls-1" x1="182.505" y1="21.574" x2="291.016" y2="21.574"/>
    </g>
  </g>
</svg>