<?xml version="1.0" encoding="UTF-8"?>
<svg id="Layer_2" data-name="Layer 2" xmlns="http://www.w3.org/2000/svg" viewBox="0 0 347.234 296.154">
  <defs>
    <style>
      .cls-1, .cls-2 {
        stroke-linecap: round;
        stroke-linejoin: round;
        stroke-width: 12px;
      }

      .cls-1, .cls-2, .cls-3 {
        fill: none;
      }

      .cls-1, .cls-3 {
        stroke: #3b3b3c;
      }

      .cls-4 {
        fill: #3b3b3c;
      }

      .cls-4, .cls-5, .cls-6 {
        stroke-width: 0px;
      }

      .cls-5 {
        fill: #fbbb4e;
      }

      .cls-2 {
        stroke: #414042;
      }

      .cls-3 {
        stroke-miterlimit: 10;
        stroke-width: 10px;
      }

      .cls-6 {
        fill: #fff;
      }
    </style>
  </defs>
  <g id="Layer_2-2" data-name="Layer 2">
    <rect class="cls-5" x="170.292" y="172.867" width="88.468" height="66.766"/>
    <circle class="cls-5" cx="163.622" cy="109.867" r="29.362"/>
    <g>
      <rect class="cls-6" x="123.701" y="94.454" width="58.573" height="11.745" transform="translate(-26.132 137.564) rotate(-45)"/>
      <rect class="cls-6" x="133.051" y="106.643" width="58.573" height="5.904" transform="translate(-29.948 146.889) rotate(-45)"/>
    </g>
    <g>
      <rect class="cls-6" x="159.673" y="193.08" width="73.804" height="11.745" transform="translate(-83.105 197.271) rotate(-45)"/>
      <rect class="cls-6" x="157.127" y="205.456" width="97.22" height="5.904" transform="translate(-87.108 206.519) rotate(-45)"/>
    </g>
    <g>
      <line class="cls-2" x1="6" y1="290.154" x2="341.234" y2="290.154"/>
      <line class="cls-1" x1="35.043" y1="289.899" x2="35.043" y2="160.452"/>
      <line class="cls-1" x1="288.319" y1="289.899" x2="288.319" y2="160.452"/>
      <path class="cls-4" d="M19.346,173.33l-12.623-12.623c-2.021-2.021-2.021-5.298,0-7.318L158.596,1.516c2.021-2.021,5.298-2.021,7.318,0l154.426,154.426c2.021,2.021,2.021,5.298,0,7.318l-11.703,11.703c-2.021,2.021-5.298,2.021-7.318,0L167.803,41.447c-2.011-2.011-5.267-2.022-7.292-.027L26.638,173.357c-2.025,1.996-5.281,1.984-7.292-.027Z"/>
      <rect class="cls-1" x="62.872" y="174.112" width="73.787" height="115.66"/>
      <line class="cls-1" x1="115.723" y1="226.197" x2="120.957" y2="226.197"/>
      <rect class="cls-1" x="170.154" y="173.904" width="87.83" height="67.149"/>
      <path class="cls-1" d="M162.367,243.224h102.447v7.564c0,4.809-3.904,8.713-8.713,8.713h-85.021c-4.809,0-8.713-3.904-8.713-8.713v-7.564h0Z"/>
      <circle class="cls-1" cx="163.612" cy="110.378" r="31.021"/>
      <line class="cls-3" x1="214.707" y1="238.867" x2="214.707" y2="175.771"/>
    </g>
  </g>
</svg>