<?xml version="1.0" encoding="UTF-8"?>
<svg id="Layer_2" xmlns="http://www.w3.org/2000/svg" viewBox="0 0 393.643 333.752">
  <defs>
    <style>
      .cls-1, .cls-2, .cls-3, .cls-4, .cls-5, .cls-6, .cls-7 {
        stroke-width: 12px;
      }

      .cls-1, .cls-2, .cls-4, .cls-8, .cls-5 {
        stroke-linecap: round;
        stroke-linejoin: round;
      }

      .cls-1, .cls-3, .cls-4, .cls-7 {
        stroke: #3d3e3e;
      }

      .cls-1, .cls-9 {
        fill: #3d3e3e;
      }

      .cls-10, .cls-2, .cls-8, .cls-6 {
        fill: #fff;
      }

      .cls-2, .cls-8, .cls-5, .cls-6 {
        stroke: #3b3b3c;
      }

      .cls-3, .cls-11 {
        fill: #fbbb4e;
      }

      .cls-3, .cls-6, .cls-7 {
        stroke-miterlimit: 10;
      }

      .cls-4, .cls-5, .cls-7 {
        fill: none;
      }

      .cls-8 {
        stroke-width: 9px;
      }
    </style>
  </defs>
  <g id="Layer_2-2" data-name="Layer_2">
    <g>
      <rect class="cls-11" x="288.963" y="90.668" width="45.766" height="34.66"/>
      <line class="cls-2" x1="222.899" y1="57.157" x2="386.558" y2="57.157"/>
      <line class="cls-2" x1="221.111" y1="30.859" x2="386.558" y2="30.859"/>
      <polyline class="cls-5" points="227.048 52.816 244.792 35.072 265.984 54.263 288.324 33.923 308.494 54.093 328.282 34.306 348.197 54.221 368.239 34.178 387.643 53.582"/>
      <rect class="cls-5" x="288.069" y="88.625" width="43.085" height="35.043"/>
      <path class="cls-5" d="M304.505,59.455c-7.436,6.321.368,27.601,5.074,27.574,4.86-.027,12.055-22.811,5.074-28.245-2.7-2.102-7.493-1.587-10.149.67Z"/>
    </g>
    <g>
      <rect class="cls-1" x="249.813" y="119.761" width="65.106" height="167.76"/>
      <rect class="cls-6" x="29.792" y="-5.681" width="211.404" height="234.766" rx="6.519" ry="6.519" transform="translate(247.196 -23.792) rotate(90)"/>
      <rect class="cls-9" x="97.661" y="140.358" width="75.092" height="226.064" rx="6.519" ry="6.519" transform="translate(388.597 118.183) rotate(90)"/>
      <line class="cls-4" x1="6" y1="288.223" x2="341.234" y2="288.223"/>
      <rect class="cls-3" x="9.191" y="33.277" width="249.005" height="37.803" rx="8.504" ry="8.504"/>
      <rect class="cls-3" x="9.191" y="93.596" width="249.005" height="37.803" rx="8.504" ry="8.504"/>
      <rect class="cls-3" x="9.191" y="150.468" width="249.005" height="37.803" rx="8.504" ry="8.504"/>
    </g>
    <g>
      <rect class="cls-10" x="125.874" y="43.931" width="51.273" height="11.745" transform="translate(9.16 121.721) rotate(-45)"/>
      <rect class="cls-10" x="124.395" y="55.394" width="74.382" height="5.904" transform="translate(6.07 131.347) rotate(-45)"/>
    </g>
    <g>
      <rect class="cls-10" x="117.704" y="102.399" width="51.273" height="11.745" transform="translate(-34.576 133.069) rotate(-45)"/>
      <rect class="cls-10" x="116.224" y="113.862" width="74.382" height="5.904" transform="translate(-37.666 142.695) rotate(-45)"/>
    </g>
    <g>
      <rect class="cls-10" x="116.172" y="160.612" width="51.273" height="11.745" transform="translate(-76.187 149.036) rotate(-45)"/>
      <rect class="cls-10" x="114.693" y="172.075" width="74.382" height="5.904" transform="translate(-79.277 158.662) rotate(-45)"/>
    </g>
    <rect class="cls-10" x="104.053" y="232.223" width="53.808" height="43.702" rx="6.519" ry="6.519" transform="translate(385.032 123.117) rotate(90)"/>
    <rect class="cls-10" x="38.287" y="232.223" width="53.808" height="43.702" rx="6.519" ry="6.519" transform="translate(319.266 188.883) rotate(90)"/>
    <rect class="cls-10" x="167.888" y="232.606" width="53.808" height="43.702" rx="6.519" ry="6.519" transform="translate(449.25 59.665) rotate(90)"/>
    <rect class="cls-10" x="278.59" y="133.474" width="34.484" height="27.324" rx="6.519" ry="6.519" transform="translate(442.968 -148.696) rotate(90)"/>
    <rect class="cls-10" x="278.59" y="184.41" width="34.484" height="27.324" rx="6.519" ry="6.519" transform="translate(493.904 -97.76) rotate(90)"/>
    <rect class="cls-10" x="278.59" y="230.75" width="34.484" height="27.324" rx="6.519" ry="6.519" transform="translate(540.245 -51.42) rotate(90)"/>
    <rect class="cls-7" x="9.191" y="33.277" width="249.005" height="37.803" rx="8.504" ry="8.504"/>
    <rect class="cls-7" x="9.191" y="93.596" width="249.005" height="37.803" rx="8.504" ry="8.504"/>
    <rect class="cls-7" x="9.191" y="150.468" width="249.005" height="37.803" rx="8.504" ry="8.504"/>
    <g>
      <rect class="cls-11" x="163.406" y="269.098" width="169.463" height="56.186" rx="16.153" ry="16.153"/>
      <polygon class="cls-11" points="319.848 282.511 238.657 294 240.188 238.34 289.72 242.681 319.848 282.511"/>
      <g>
        <rect class="cls-10" x="158.476" y="275.262" width="33.412" height="11.745" transform="translate(-147.482 206.215) rotate(-45)"/>
        <rect class="cls-10" x="158.017" y="287.336" width="53.259" height="5.904" transform="translate(-151.183 215.588) rotate(-45)"/>
      </g>
      <g>
        <rect class="cls-10" x="226.502" y="254.547" width="67.089" height="11.745" transform="translate(-107.978 260.156) rotate(-45)"/>
        <rect class="cls-10" x="230.776" y="268.832" width="73.047" height="5.904" transform="translate(-113.89 268.613) rotate(-45)"/>
      </g>
      <polygon class="cls-5" points="164.358 320.369 164.358 269.561 237.38 269.561 237.38 320.412 164.358 320.369"/>
      <path class="cls-5" d="M245.865,236.436l34.982.361c5.106.053,9.893,2.496,12.931,6.6l15.547,21.005c2.393,3.233,5.438,5.928,8.938,7.91l10.399,5.888c3.389,1.919,5.484,5.513,5.484,9.408v35.315h-93.957l-.709-80.111c-.031-3.538,2.848-6.413,6.385-6.376Z"/>
      <circle class="cls-2" cx="196.018" cy="312.433" r="15.319"/>
      <circle class="cls-2" cx="302.741" cy="312.433" r="15.319"/>
      <polygon class="cls-8" points="255.55 252.295 255.55 275.082 293.103 275.082 276.358 252.359 255.55 252.295"/>
    </g>
  </g>
</svg>