<?xml version="1.0" encoding="UTF-8"?> <svg xmlns="http://www.w3.org/2000/svg" xmlns:bx="https://boxy-svg.com" version="1.1" id="Ebene_1" x="0px" y="0px" viewBox="0 0 556 318" style="enable-background:new 0 0 396.7 314.3;"><g style="" transform="matrix(1.020486, 0, 0, 1, 0, 0)"><g transform="matrix(1, 0, 0, 1, 1.95985, 2)"><g><g><rect x="36.6" y="0.5" width="52.5" height="2"></rect><path d="M89.6,3H36.1V0h53.5V3z M37.1,2h51.5V1H37.1V2z"></path></g></g><g><g><rect x="36.6" y="11.2" width="52.5" height="2"></rect><path d="M89.6,13.7H36.1v-3h53.5V13.7z M37.1,12.7h51.5v-1H37.1V12.7z"></path></g></g><g><g><rect x="36.6" y="21.9" width="52.5" height="2"></rect><path d="M89.6,24.4H36.1v-3h53.5V24.4z M37.1,23.4h51.5v-1H37.1V23.4z"></path></g></g><g><g><rect x="36.6" y="32.7" width="52.5" height="2"></rect><path d="M89.6,35.1H36.1v-3h53.5V35.1z M37.1,34.1h51.5v-1H37.1V34.1z"></path></g></g><g><g><rect x="36.6" y="43.4" width="52.5" height="2"></rect><path d="M89.6,45.9H36.1v-3h53.5V45.9z M37.1,44.9h51.5v-1H37.1V44.9z"></path></g></g><g><g><rect x="36.6" y="54.1" width="52.5" height="2"></rect><path d="M89.6,56.6H36.1v-3h53.5V56.6z M37.1,55.6h51.5v-1H37.1V55.6z"></path></g></g><g><g><rect x="36.6" y="64.9" width="52.5" height="2"></rect><path d="M89.6,67.3H36.1v-3h53.5V67.3z M37.1,66.3h51.5v-1H37.1V66.3z"></path></g></g><g><g><rect x="36.6" y="75.6" width="52.5" height="2"></rect><path d="M89.6,78H36.1v-3h53.5V78z M37.1,77.1h51.5v-1H37.1V77.1z"></path></g></g><g><g><rect x="36.6" y="86.3" width="52.5" height="2"></rect><path d="M89.6,88.8H36.1v-3h53.5V88.8z M37.1,87.8h51.5v-1H37.1V87.8z"></path></g></g><g><g><rect x="36.6" y="97" width="91" height="2"></rect><path d="M128.1,99.5h-92v-3h92V99.5z M37.1,98.5h90v-1h-90V98.5z"></path></g></g><g><g><rect x="36.6" y="107.8" width="91" height="2"></rect><path d="M128.1,110.2h-92v-3h92V110.2z M37.1,109.2h90v-1h-90V109.2z"></path></g></g><g><g><rect x="36.6" y="118.5" width="91" height="2"></rect><path d="M128.1,121h-92v-3h92V121z M37.1,120h90v-1h-90V120z"></path></g></g><g><g><rect x="36.6" y="129.2" width="91" height="2"></rect><path d="M128.1,131.7h-92v-3h92V131.7z M37.1,130.7h90v-1h-90V130.7z"></path></g></g><g><g><rect x="36.6" y="139.9" width="91" height="2"></rect><path d="M128.1,142.4h-92v-3h92V142.4z M37.1,141.4h90v-1h-90V141.4z"></path></g></g><g><g><rect x="36.6" y="150.7" width="91" height="2"></rect><path d="M128.1,153.1h-92v-3h92V153.1z M37.1,152.1h90v-1h-90V152.1z"></path></g></g><g><g><rect x="0.5" y="161.4" width="127.1" height="2"></rect><path d="M128.1,163.9H0v-3h128.1V163.9z M1,162.9h126.1v-1H1V162.9z"></path></g></g><g><g><rect x="0.5" y="172.1" width="127.1" height="2"></rect><path d="M128.1,174.6H0v-3h128.1V174.6z M1,173.6h126.1v-1H1V173.6z"></path></g></g><g><g><rect x="0.5" y="182.9" width="127.1" height="2"></rect><path d="M128.1,185.3H0v-3h128.1V185.3z M1,184.3h126.1v-1H1V184.3z"></path></g></g><g><g><rect x="0.5" y="193.6" width="127.1" height="2"></rect><path d="M128.1,196H0v-3h128.1V196z M1,195h126.1v-1H1V195z"></path></g></g><g><g><rect x="0.5" y="204.3" width="127.1" height="2"></rect><path d="M128.1,206.8H0v-3h128.1V206.8z M1,205.8h126.1v-1H1V205.8z"></path></g></g><g><g><rect x="0.5" y="215" width="127.1" height="2"></rect><path d="M128.1,217.5H0v-3h128.1V217.5z M1,216.5h126.1v-1H1V216.5z"></path></g></g><g><g><rect x="0.5" y="225.8" width="127.1" height="2"></rect><path d="M128.1,228.2H0v-3h128.1V228.2z M1,227.2h126.1v-1H1V227.2z"></path></g></g><g><g><rect x="0.5" y="236.5" width="127.1" height="2"></rect><path d="M128.1,238.9H0v-3h128.1V238.9z M1,238h126.1v-1H1V238z"></path></g></g><g><g><rect x="0.5" y="247.2" width="127.1" height="2"></rect><path d="M128.1,249.7H0v-3h128.1V249.7z M1,248.7h126.1v-1H1V248.7z"></path></g></g><g><g><rect x="0.5" y="257.9" width="127.1" height="2"></rect><path d="M128.1,260.4H0v-3h128.1V260.4z M1,259.4h126.1v-1H1V259.4z"></path></g></g><g><g><rect x="0.5" y="268.7" width="127.1" height="2"></rect><path d="M128.1,271.1H0v-3h128.1V271.1z M1,270.1h126.1v-1H1V270.1z"></path></g></g><g><g><rect x="0.5" y="279.4" width="127.1" height="2"></rect><path d="M128.1,281.9H0v-3h128.1V281.9z M1,280.9h126.1v-1H1V280.9z"></path></g></g><g><g><rect x="0.5" y="290.1" width="127.1" height="2"></rect><path d="M128.1,292.6H0v-3h128.1V292.6z M1,291.6h126.1v-1H1V291.6z"></path></g></g><g><g><rect x="0.5" y="300.8" width="127.1" height="2"></rect><path d="M128.1,303.3H0v-3h128.1V303.3z M1,302.3h126.1v-1H1V302.3z"></path></g></g><g><g><rect x="0.5" y="311.6" width="127.1" height="2"></rect><path d="M128.1,314H0v-3h128.1V314z M1,313h126.1v-1H1V313z"></path></g></g></g><g style="" transform="matrix(1.598788, 0, 0, 1.843793, -92.675301, -269.469299)" bx:origin="0.485406 0.5"><path d="M165.1,242.6h-16.7v-38.4h15.9c8,0,12.3,4.5,12.3,11.1c0,4.4-3,6.8-4.2,7.6c1.6,1,4.8,3,4.8,8.4 C177.1,238.6,171.9,242.6,165.1,242.6z M163.7,212.6h-5.9v6.3h5.9c2.6,0,3.4-1.6,3.4-3.1C167.1,214.3,166.3,212.6,163.7,212.6z M164.2,227.4h-6.4v6.8h6.4c2.6,0,3.5-1.8,3.5-3.4C167.6,229.1,166.8,227.4,164.2,227.4z"></path><path d="M206.5,242.6l-1.8-5.7h-11.8l-1.9,5.7h-9.9l14-38.4h7.3l14,38.4H206.5z M198.9,218.7l-3.5,10.3h6.7L198.9,218.7z"></path><path d="M235.4,242.9c-8,0-14.5-5.4-14.5-13.8v-24.9h9.5v24.7c0,3.6,1.9,5.6,5.1,5.6c3.1,0,5.2-2.1,5.2-5.6v-24.7h9.5v24.9 C250.1,237.5,243.4,242.9,235.4,242.9z"></path><path d="M275.3,242.6h-16.7v-38.4h15.9c8,0,12.3,4.5,12.3,11.1c0,4.4-3,6.8-4.2,7.6c1.6,1,4.8,3,4.8,8.4 C287.3,238.6,282.2,242.6,275.3,242.6z M273.9,212.6H268v6.3h5.9c2.6,0,3.4-1.6,3.4-3.1C277.3,214.3,276.5,212.6,273.9,212.6z M274.4,227.4H268v6.8h6.4c2.6,0,3.5-1.8,3.5-3.4C277.8,229.1,277,227.4,274.4,227.4z"></path><path d="M309.1,242.9c-8,0-14.5-5.4-14.5-13.8v-24.9h9.5v24.7c0,3.6,1.9,5.6,5.1,5.6c3.1,0,5.2-2.1,5.2-5.6v-24.7h9.5v24.9 C323.7,237.5,317,242.9,309.1,242.9z M299.4,200.4v-7.8h7.2v7.8H299.4z M311.6,200.4v-7.8h7.2v7.8H311.6z"></path><path d="M351.6,242.6l-6.8-14.3h-3.2v14.3h-9.4v-38.4h15.2c8.5,0,13.1,6,13.1,12.4c0,5.2-3.2,8.5-6.3,10l8.3,16H351.6z M347,212.6 h-5.3v7.8h5.3c2.6,0,4.1-1.9,4.1-3.9S349.6,212.6,347,212.6z"></path><path d="M392.9,238.6c-2.8,2.8-6,4.3-10.7,4.3s-7.9-1.5-10.7-4.3c-4-4.1-3.9-9.5-3.9-15.2s-0.2-11.2,3.9-15.2 c2.8-2.8,6-4.3,10.7-4.3s7.9,1.5,10.7,4.3c4,4.1,3.9,9.4,3.9,15.2S396.9,234.6,392.9,238.6z M385.9,213.9 c-0.7-0.9-2.1-1.7-3.8-1.7s-3.1,0.8-3.8,1.7c-0.9,1.1-1.4,2.4-1.4,9.5s0.5,8.3,1.4,9.4c0.7,0.9,2.1,1.7,3.8,1.7s3.1-0.8,3.8-1.7 c0.9-1.1,1.4-2.4,1.4-9.4S386.8,215.1,385.9,213.9z"></path><path d="M157.6,279.4H148v-24.7h9.3c4.3,0,7.3,2.5,7.3,6.6c0,2.6-1.6,4.7-3.6,5.4c2.4,0.9,4,2.9,4,5.9 C165,277,162,279.4,157.6,279.4z M157.1,257h-6.5v8.6h6.5c2.7,0,4.9-1.4,4.9-4.3C162,258.3,159.9,257,157.1,257z M157.4,268h-6.7 v9.1h6.7c3.1,0,5-1.8,5-4.5C162.4,269.7,160.5,268,157.4,268z"></path><path d="M187.2,279.4l-2-5.6h-10.8l-2,5.6h-2.8l9.1-24.7h2.2l9.1,24.7H187.2z M179.9,258.5l-4.7,13.1h9.2L179.9,258.5z"></path><path d="M203.9,279.6c-5,0-8.6-3.4-8.6-8.4v-16.6h2.6V271c0,3.7,2.4,6.2,6,6.2c3.6,0,6-2.5,6-6.2v-16.3h2.6v16.6 C212.5,276.2,208.9,279.6,203.9,279.6z"></path><path d="M221,279.4v-24.7h15.3v2.4h-12.7v8.7h10.8v2.4h-10.8v8.9h12.7v2.4H221z"></path><path d="M259.1,279.4L246,259.6v19.8h-2.6v-24.7h2.5l13.1,19.8v-19.8h2.6v24.7H259.1z"></path><path d="M148,314.1v-24.7h2.6v24.7H148z"></path><path d="M178,314.1v-18.8l-6.8,14.9h-2.3l-6.9-14.9v18.8h-2.6v-24.7h2.6l8.1,17.5l7.8-17.5h2.6v24.7H178z"></path><path d="M209.2,314.1h-9.6v-24.7h9.3c4.3,0,7.3,2.5,7.3,6.6c0,2.6-1.6,4.7-3.6,5.4c2.4,0.9,4,2.9,4,5.9 C216.6,311.7,213.6,314.1,209.2,314.1z M208.7,291.8h-6.5v8.6h6.5c2.7,0,4.9-1.4,4.9-4.3C213.6,293.1,211.4,291.8,208.7,291.8z M209,302.7h-6.7v9.1h6.7c3.1,0,5-1.8,5-4.5C213.9,304.4,212,302.7,209,302.7z"></path><path d="M224.4,314.1v-24.7h15.3v2.4H227v8.7h10.8v2.4H227v8.9h12.7v2.4H224.4z"></path><path d="M253.2,314.3c-3.7,0-6.1-0.9-8.5-3.3l1.8-1.8c2,2,4,2.7,6.7,2.7c3.6,0,5.8-1.7,5.8-4.6c0-1.3-0.4-2.4-1.2-3.1 s-1.4-0.9-3.2-1.2l-2.9-0.5c-1.9-0.3-3.5-0.9-4.5-1.9c-1.2-1.1-1.9-2.6-1.9-4.6c0-4.2,3-7,7.9-7c3.2,0,5.2,0.8,7.4,2.7l-1.7,1.7 c-1.5-1.4-3.2-2.1-5.8-2.1c-3.3,0-5.2,1.8-5.2,4.6c0,1.2,0.3,2.2,1.1,2.8c0.8,0.7,2,1.1,3.3,1.4l2.7,0.4c2.3,0.3,3.5,0.8,4.5,1.7 c1.4,1.1,2.1,2.8,2.1,4.9C261.7,311.6,258.3,314.3,253.2,314.3z"></path><path d="M276.1,291.8v22.4h-2.6v-22.4h-7.2v-2.4h16.9v2.4H276.1z"></path><path d="M301.8,314.1l-2-5.6H289l-2,5.6h-2.8l9.1-24.7h2.2l9.1,24.7H301.8z M294.5,293.2l-4.7,13.1h9.2L294.5,293.2z"></path><path d="M326,314.1l-13.1-19.8v19.8h-2.6v-24.7h2.5l13.1,19.8v-19.8h2.6v24.7H326z"></path><path d="M351.9,311.8c-1.5,1.5-3.7,2.3-6.2,2.3h-8.5v-24.7h8.5c2.6,0,4.8,0.8,6.2,2.3c2.6,2.6,2.4,6.4,2.4,9.8 C354.4,304.9,354.5,309.3,351.9,311.8z M350.1,293.6c-1.3-1.3-2.9-1.8-4.9-1.8h-5.4v20h5.4c1.9,0,3.6-0.5,4.9-1.8 c1.7-1.8,1.6-5.4,1.6-8.5C351.7,298.5,351.8,295.3,350.1,293.6z"></path></g></g></svg> 