<svg id="Ebene_1" data-name="Ebene 1" xmlns="http://www.w3.org/2000/svg" xmlns:xlink="http://www.w3.org/1999/xlink" viewBox="0 0 250.29 56.13"><defs><style>.cls-1{fill:none;}.cls-2{clip-path:url(#clip-path);}.cls-3{fill:url(#linear-gradient);}.cls-4{clip-path:url(#clip-path-2);}.cls-5{fill:url(#linear-gradient-2);}.cls-6{clip-path:url(#clip-path-3);}.cls-7{fill:url(#linear-gradient-3);}.cls-8{clip-path:url(#clip-path-4);}.cls-9{fill:url(#linear-gradient-4);}.cls-10{clip-path:url(#clip-path-5);}.cls-11{fill:url(#linear-gradient-5);}.cls-12{clip-path:url(#clip-path-6);}.cls-13{fill:url(#linear-gradient-6);}.cls-14{fill:#fff;}.cls-15{fill:#1d1d1b;}</style><clipPath id="clip-path"><rect class="cls-1" width="56.13" height="56.13"/></clipPath><linearGradient id="linear-gradient" x1="-230.93" y1="452.33" x2="-229.93" y2="452.33" gradientTransform="matrix(0, 59.16, 59.16, 0, -26729.89, 13659.4)" gradientUnits="userSpaceOnUse"><stop offset="0" stop-color="#00774a"/><stop offset="0.6" stop-color="#8ccaae"/><stop offset="1" stop-color="#00975f"/></linearGradient><clipPath id="clip-path-2"><path class="cls-1" d="M4.38,1c-1.08,0-1.8.92-2,2.21,0,0-1.4,7.36-1.4,23A211.23,211.23,0,0,0,2.42,52.1a2.16,2.16,0,0,0,2,2.2H53a2,2,0,0,0,2-2.2s-.54-12-.54-23.71.54-25.19.54-25.19A2.09,2.09,0,0,0,53,1Z"/></clipPath><linearGradient id="linear-gradient-2" x1="-230.28" y1="451.96" x2="-229.27" y2="451.96" gradientTransform="matrix(0, 66.47, 66.47, 0, -30014.89, 15292.93)" gradientUnits="userSpaceOnUse"><stop offset="0" stop-color="#00975f"/><stop offset="0.3" stop-color="#8ccaae"/><stop offset="0.55" stop-color="#00975f"/><stop offset="0.84" stop-color="#00774a"/><stop offset="0.89" stop-color="#008052"/><stop offset="0.98" stop-color="#009869"/><stop offset="1" stop-color="#00a070"/></linearGradient><clipPath id="clip-path-3"><path class="cls-1" d="M31.67,6.62c1.53.64,7.69,4,8.44,5a51.79,51.79,0,0,0-12.45,3.59l-.19.39a82.93,82.93,0,0,1,12.14-1.4,39.15,39.15,0,0,1-4.14,5l-.18.42c3.76-2.26,4.82-2.42,8.29-4.45,1.31,1.94,1.63,6.4,1.68,9.94,1.13-2.24,2.5-10.7,1.93-12.23C49.49,11.29,49.8,10,49.8,10a21.85,21.85,0,0,0-4.41.58A40.51,40.51,0,0,0,31.84,6.23Z"/></clipPath><linearGradient id="linear-gradient-3" x1="-216.85" y1="444.42" x2="-215.85" y2="444.42" gradientTransform="matrix(0, -43.02, -43.02, 0, 19156.04, -9279.26)" gradientUnits="userSpaceOnUse"><stop offset="0" stop-color="#00a97c"/><stop offset="1" stop-color="#00975f"/></linearGradient><clipPath id="clip-path-4"><path class="cls-1" d="M8.68,32.92a23.73,23.73,0,0,0,0,7.09,25.41,25.41,0,0,0-3.06.75l-.17.39a38.34,38.34,0,0,0,4.31,2.36A14.54,14.54,0,0,0,13,48.16l.18-.39a8.32,8.32,0,0,1-.48-3.15,21.1,21.1,0,0,0,5.51.88l.18-.39c-1.84-.72-3.69-1.28-5.18-2.69A15.48,15.48,0,0,1,15.1,38.8l.19-.39c-1.58.23-3,.81-4.39,1.08-1.08-1.9-1.5-4.5-2-7Z"/></clipPath><linearGradient id="linear-gradient-4" x1="-216.85" y1="444.43" x2="-215.85" y2="444.43" gradientTransform="matrix(0, -43.03, -43.03, 0, 19133.71, -9281.29)" xlink:href="#linear-gradient-3"/><clipPath id="clip-path-5"><path class="cls-1" d="M18.07,20.05A28.18,28.18,0,0,0,14.93,20a29.22,29.22,0,0,0-5.33.57L9.42,21c1.91.08,4.53.59,5.53,1.6A30.31,30.31,0,0,0,9.17,30.9s5.22-4.89,7.48-6.1c0,0,1.18,3.94,2,5.91l.18-.39a32.15,32.15,0,0,1,1.76-6.81,6,6,0,0,1,2-.37,30.62,30.62,0,0,1,8.52.55l.18-.38a30.47,30.47,0,0,0-9.42-2.94H22a20.25,20.25,0,0,1,1.33-3.06,15.7,15.7,0,0,0-5.27,2.74"/></clipPath><linearGradient id="linear-gradient-5" x1="-216.85" y1="444.42" x2="-215.85" y2="444.42" gradientTransform="matrix(0, -43, -43, 0, 19130.43, -9275.64)" xlink:href="#linear-gradient-3"/><clipPath id="clip-path-6"><path class="cls-1" d="M29,44.21c-.06-.76-.11-1.41-.15-2.27-.91,1.23-1.68,2.2-2.68,3.32a12.66,12.66,0,0,1-3.37.27H21.55l-.18.39A11.39,11.39,0,0,0,24.48,47a24.67,24.67,0,0,1-2.86,2l-.18.38a22.17,22.17,0,0,0,5.78-2.17A10.43,10.43,0,0,0,29.57,47s.18-.4.18-.39c-.11-.4-.46-.64-.57-1.2a40.56,40.56,0,0,0,4.13-3.74l.19-.39A35.94,35.94,0,0,1,29,44.21"/></clipPath><linearGradient id="linear-gradient-6" x1="-216.84" y1="444.43" x2="-215.84" y2="444.43" gradientTransform="matrix(0, -43.01, -43.01, 0, 19142.64, -9277.72)" xlink:href="#linear-gradient-3"/></defs><title>BNPPRE Logo CMYK</title><g class="cls-2"><rect class="cls-3" width="56.13" height="56.13"/></g><g class="cls-4"><rect class="cls-5" x="1.02" y="0.99" width="53.94" height="53.31"/></g><g class="cls-6"><rect class="cls-7" x="27.47" y="6.23" width="22.33" height="18.87"/></g><g class="cls-8"><rect class="cls-9" x="5.42" y="32.52" width="12.98" height="15.64"/></g><g class="cls-10"><rect class="cls-11" x="9.17" y="17.31" width="22.12" height="13.59"/></g><g class="cls-12"><rect class="cls-13" x="21.37" y="41.3" width="12.13" height="8.04"/></g><path class="cls-14" d="M43.76,14.76c-3.46,2-4.52,2.21-8.29,4.46a39,39,0,0,0,4.31-5.38,82.66,82.66,0,0,0-12.12,1.4,48,48,0,0,1,12.64-4c-.76-1-6.92-4.39-8.46-5,4.88.38,10.84,2.2,13.73,4A22.39,22.39,0,0,1,50,9.64a5.89,5.89,0,0,1-2.64,2.83c.57,1.54-.8,10-1.94,12.24,0-3.54-.35-8-1.67-10"/><path class="cls-14" d="M18.4,45.11a13.76,13.76,0,0,1-5-3.08,15.6,15.6,0,0,1,1.89-3.63c-1.62.25-2.81.43-4.21.69a21.69,21.69,0,0,1-2.22-6.57,23.79,23.79,0,0,0,0,7.1,20.75,20.75,0,0,0-3.24,1.14,41.38,41.38,0,0,0,4.32,2.37,14.72,14.72,0,0,0,3.28,4.64,8.65,8.65,0,0,1-.3-3.55,20.69,20.69,0,0,0,5.51.89"/><path class="cls-14" d="M23.58,17h0a11.41,11.41,0,0,0-1.53,3,25.37,25.37,0,0,1,9.24,3.33,29.83,29.83,0,0,0-8.52-.55,6.71,6.71,0,0,0-2,.35,35.6,35.6,0,0,0-1.94,7.21c-.82-2-2-5.91-2-5.91-2.26,1.21-7.46,6.11-7.46,6.11a29.64,29.64,0,0,1,5.76-8.34c-1-1-3.62-1.52-5.53-1.61a21.72,21.72,0,0,1,5.5-1,26.76,26.76,0,0,1,3.16.06A15.79,15.79,0,0,1,23.58,17"/><path class="cls-14" d="M29,41.55a39.37,39.37,0,0,1-2.69,3.32,16.6,16.6,0,0,1-4.78.66,11.74,11.74,0,0,0,3.11,1.08,21.58,21.58,0,0,1-3,2.34,22.2,22.2,0,0,0,5.78-2.18,10.39,10.39,0,0,0,2.35-.14A13.24,13.24,0,0,1,29.36,45,39.55,39.55,0,0,0,33.5,41.3a28.2,28.2,0,0,1-4.33,2.52c-.07-.76-.11-1.41-.15-2.27"/><path class="cls-15" d="M70.2,7.07c.14,1.84.24,6.45.24,8.14,0,1.54,0,6.74-.26,9l0,.19h8.13c4,0,8.21-1.26,8.21-4.8,0-2.22-1.61-3.86-4.61-4.76,2.2-.58,3.71-2.12,3.71-3.88,0-2.88-3.33-4-6.44-4h-9Zm6.28,1.78c3.4,0,4.65.71,4.65,2.56a2,2,0,0,1-.45,1.29,4.34,4.34,0,0,1-3.55,1.1h-.08l-.93,2.45h.95a5.31,5.31,0,0,1,4.32,1.56A2.39,2.39,0,0,1,82,19.39c0,1.94-1.7,2.93-5,2.93-.55,0-1.46,0-2,0-.12-2.56-.13-6.05-.13-7.08,0-1.21.06-3.94.14-6.25a9.11,9.11,0,0,1,1.6-.11"/><path class="cls-15" d="M105.23,6.89h-4l.17,4.4c.07,2.19.14,4.43.28,6.59a13.91,13.91,0,0,0-1.66-2.76c0-.06-4.14-6.39-5.56-8.18l0-.05h-4.6v.17c.13,1.84.23,6.44.23,8.14s0,6.75-.25,9l0,.18h4.08V24.2c-.24-4.28-.24-8.58-.24-12.74h0a6,6,0,0,0,1,1.9c.07.11,7.09,10.35,7.44,11l0,.06h3.29l0-.18c-.24-2.25-.26-7.44-.26-9s.1-6.31.23-8.14V6.89Z"/><path class="cls-15" d="M110,7.06c.13,1.85.23,6.45.23,8.14s0,6.74-.26,9l0,.18h4.87l0-.18c-.17-1.6-.23-4.67-.25-7l.9,0,.68,0c6.41,0,9.52-1.71,9.52-5.26,0-4.05-4.36-5-8-5.07H110Zm6,1.93c2.28,0,3.88.43,4.64,1.38A2.44,2.44,0,0,1,121.1,12c0,2.54-2.83,3.06-5.21,3.06l-1,0-.38-.06c0-.57,0-1.34,0-2.21,0-1.11,0-2.4,0-3.61A8.87,8.87,0,0,1,115.93,9"/><path class="cls-15" d="M134.92,7.06c.13,1.85.23,6.45.23,8.14s0,6.74-.26,9v.18h4.86l0-.18c-.17-1.6-.23-4.67-.25-7l.89,0,.69,0c6.41,0,9.53-1.71,9.53-5.26,0-4.05-4.37-5-8-5.07h-7.63Zm6,1.93c2.27,0,3.88.43,4.65,1.38a2.43,2.43,0,0,1,.52,1.59c0,2.54-2.83,3.06-5.21,3.06l-1,0-.38-.06c0-.57,0-1.34,0-2.22,0-1.11,0-2.39.07-3.6A8.73,8.73,0,0,1,140.88,9"/><path class="cls-15" d="M157.09,6.9H157L157,7c-.91,2.49-6.73,15.2-7.64,17.15l-.11.24h4.18l0-.1c.36-1.19.82-2.55,1.38-4l3.44-.05,2.85,0,.61,0c.76,1.88,1.32,3.31,1.57,4l0,.09h4.83L160.36,6.9h-3.27Zm1.19,5.15c.39.82,1.39,3.16,2.51,5.92h-.37l-2.14,0-2.56,0c.9-2.23,1.79-4.23,2.56-5.92"/><path class="cls-15" d="M170.07,7.06c.13,1.84.23,6.45.23,8.14s0,6.74-.26,9v.18h4.86v-.18c-.25-2.26-.27-7.44-.27-9,0-1.21,0-3.93.14-6.1.4,0,.95-.1,1.32-.11,2.27,0,3.87.44,4.64,1.38a2.44,2.44,0,0,1,.53,1.59c0,2-1.9,3-3.66,3.14a5.52,5.52,0,0,1-1-.06l-.32,0,.2.31c1.71,2.52,4.3,6.92,5.39,9l.05.07h5.21l-.16-.26c-.18-.28-3.59-5.29-5-7.43l-.09-.14c2.65-.79,4-2.3,4-4.59,0-4.05-4.38-5-8-5.06h-7.64Z"/><path class="cls-15" d="M194,6.88h-4.66l0,.17c.12,1.85.22,6.46.22,8.15,0,1.54,0,6.73-.26,9v.18h4.85v-.18c-.24-2.25-.26-7.44-.26-9,0-1.7.1-6.31.23-8.15l0-.17Z"/><path class="cls-15" d="M198.53,7.07c.13,1.84.23,6.45.23,8.14,0,1.54,0,6.74-.25,9l0,.19h8.13c4,0,8.21-1.26,8.21-4.8,0-2.22-1.61-3.86-4.62-4.76,2.21-.58,3.71-2.12,3.71-3.88,0-2.88-3.31-4-6.42-4h-9Zm6.28,1.78h0c3.39,0,4.65.71,4.65,2.56A2,2,0,0,1,209,12.7a4.33,4.33,0,0,1-3.55,1.1h-.08l-.93,2.45h1a5.29,5.29,0,0,1,4.31,1.56,2.4,2.4,0,0,1,.59,1.58c0,1.94-1.7,2.93-5,2.93-.57,0-1.48,0-2.06,0-.12-2.56-.12-6.05-.12-7.08,0-1.22,0-3.94.14-6.25a8.84,8.84,0,0,1,1.59-.11"/><path class="cls-15" d="M226.78,6.88h-3.27l0,.09c-.95,2.65-7.12,16.05-7.63,17.15l-.11.24h4.18l0-.1c.36-1.19.83-2.54,1.39-4l3.43-.05,2.85,0h.62c.76,1.89,1.31,3.3,1.56,4l0,.09h4.83L226.86,6.88Zm-2,5.15c.39.82,1.38,3.17,2.51,5.92l-.36,0-2.15,0L222.22,18c.9-2.23,1.78-4.22,2.55-5.92"/><path class="cls-15" d="M236,11.41c0,3.08,3.1,4.32,5.82,5.43,2.12.86,4.31,1.75,4.31,3.21a1.57,1.57,0,0,1-.34,1.08c-.5.59-1.54.85-3.19.77a15.16,15.16,0,0,1-5.47-1.54l-.85-.4v3.82l.55.12.34.07a21.35,21.35,0,0,0,4.92.71c5.14,0,8.2-2,8.2-5.43,0-3.15-3.16-4.41-6-5.52-2.05-.82-4.18-1.67-4.18-3,0-.4,0-1.57,2.64-1.57a13.18,13.18,0,0,1,4.94,1.24l1,.41,0-.66V7l-1-.17a23.2,23.2,0,0,0-4.36-.51C239,6.28,236,8.34,236,11.41"/><path class="cls-15" d="M77.72,31.9c3.63,0,8,1,8,5,0,2.24-1.31,3.74-3.9,4.53A92.6,92.6,0,0,0,87,49.16H81.84c-1.13-2.14-3.7-6.48-5.58-9.29A6.75,6.75,0,0,0,77.6,40c1.5,0,3.62-1.08,3.62-3.08,0-2.49-3-2.94-4.51-2.94a16.14,16.14,0,0,0-1.87.1c-.1,2.14-.15,4.84-.15,6,0,1.53,0,6.64.27,9H70.15c.25-2.39.3-5.47.3-9,0-3,0-6.61-.25-8.21Z"/><path class="cls-15" d="M102.58,31.9v2.52a63.74,63.74,0,0,0-7.19-.23c-.64,0-1.16,0-2.08.06,0,1.62-.07,3.57-.07,4.92L99.56,39v2.61l-6.34-.15c0,1.5,0,3.68.12,5.46,3.26-.06,6.49-.08,9.71-.28v2.49H88.71c.22-2.39.24-7.52.24-9,0-1.67-.1-6.23-.22-8.23Z"/><path class="cls-15" d="M115.44,31.9c.67,1.77,6.34,14.4,7.67,17.26h-4.76c-.27-.79-.83-2.21-1.58-4.07-1,0-2-.05-3.4-.05s-2.29,0-3.43.05c-.54,1.46-1,2.79-1.38,4.07h-4.14c1-2.14,6.78-14.72,7.69-17.26Zm.42,10.92c-1.13-2.71-2.12-5-2.46-5.84-.79,1.68-1.66,3.65-2.57,5.84.74,0,1.75,0,2.57,0s1.63,0,2.46,0"/><path class="cls-15" d="M138.17,49.16H124.65c.25-2.39.25-7.52.25-9,0-1.67-.11-6.23-.25-8.23h4.74c-.13,2-.23,6.54-.23,8.23,0,1.15,0,4.35.1,6.82h2.54c2.61,0,4.54-.16,6.37-.3Z"/><path class="cls-15" d="M160.17,31.9v2.52a63.92,63.92,0,0,0-7.2-.23c-.65,0-1.16,0-2.07.06-.05,1.62-.08,3.57-.08,4.92l6.31-.14v2.61l-6.34-.15c0,1.5.06,3.68.13,5.46,3.25-.06,6.48-.08,9.71-.28v2.49H146.28c.22-2.39.25-7.52.25-9,0-1.67-.1-6.23-.23-8.23Z"/><path class="cls-15" d="M170.33,31.56a20.68,20.68,0,0,1,5.31.66V36a11,11,0,0,0-5.88-1.63c-2.46,0-2.61.91-2.61,1.55,0,3.14,10,2.72,10,8.19,0,3.38-3,5.37-8.09,5.37a18.16,18.16,0,0,1-5.74-.88V44.85c3.08,1.45,5,1.94,6.78,1.94,1.95,0,3-.56,3-1.84,0-3.38-10-2.89-10-8.64,0-3,2.92-4.75,7.28-4.75"/><path class="cls-15" d="M193.74,31.9v2.52a48.22,48.22,0,0,0-5.65-.35c-.07,2.1-.09,4.84-.09,6,0,1.51,0,6.66.27,9h-4.83c.24-2.39.29-7.54.29-9,0-1.2-.07-3.94-.12-6a48.29,48.29,0,0,0-5.63.35V31.9Z"/><path class="cls-15" d="M203.05,31.9c.67,1.77,6.34,14.4,7.67,17.26H206c-.27-.79-.83-2.21-1.58-4.07-1,0-2-.05-3.4-.05s-2.29,0-3.43.05c-.54,1.46-1,2.79-1.38,4.07H192c1-2.14,6.78-14.72,7.69-17.26Zm.42,10.92c-1.13-2.71-2.12-5-2.46-5.84-.8,1.68-1.65,3.65-2.57,5.84.74,0,1.75,0,2.57,0s1.62,0,2.46,0"/><path class="cls-15" d="M224.76,31.9v2.52a48.36,48.36,0,0,0-5.65-.35c-.07,2.1-.09,4.84-.09,6,0,1.51,0,6.66.27,9h-4.84c.25-2.39.3-7.54.3-9,0-1.2-.08-3.94-.12-6a48.15,48.15,0,0,0-5.63.35V31.9Z"/><path class="cls-15" d="M241.24,31.9v2.52a63.82,63.82,0,0,0-7.19-.23c-.65,0-1.16,0-2.08.06-.05,1.62-.07,3.57-.07,4.92l6.31-.14v2.61l-6.34-.15c0,1.5,0,3.68.13,5.46,3.25-.06,6.48-.08,9.71-.28v2.49H227.36c.23-2.39.25-7.52.25-9,0-1.67-.1-6.23-.22-8.23Z"/></svg>