<svg xmlns="http://www.w3.org/2000/svg" viewBox="0 0 129.2 55.39"><defs><style>.a{fill:#1e1e1c;}</style></defs><title>CABS-WBM</title><path class="a" d="M28.41,10.52c-.35-1-.77-2.16-1.27-3.32A13.9,13.9,0,0,0,25.23,4,9.39,9.39,0,0,0,22.31,1.6,9.12,9.12,0,0,0,18,.67,10.1,10.1,0,0,0,12.48,2a8.09,8.09,0,0,0-3,3.59A17,17,0,0,0,8.13,11q-.29,3.18-.29,7a48.18,48.18,0,0,0,.56,8.23,14.24,14.24,0,0,0,1.8,5.17,6.47,6.47,0,0,0,3.15,2.67,12.31,12.31,0,0,0,4.61.77A8.7,8.7,0,0,0,21.88,34,10.93,10.93,0,0,0,25,31.69a13.06,13.06,0,0,0,2.24-3.23,16.36,16.36,0,0,0,1.34-3.78h.76V34.82h-.76A1.65,1.65,0,0,0,28,34a1.91,1.91,0,0,0-1-.22,5.92,5.92,0,0,0-1.49.27c-.6.17-1.29.37-2.07.56s-1.64.39-2.56.56a15.86,15.86,0,0,1-2.92.26A17.34,17.34,0,0,1,11.2,34.1a18.53,18.53,0,0,1-5.72-3.73,18.27,18.27,0,0,1-3.92-5.6,17.13,17.13,0,0,1,.17-14.3,18.94,18.94,0,0,1,10-9.2A16.72,16.72,0,0,1,17.93,0a12.86,12.86,0,0,1,2.84.29c.88.19,1.68.39,2.44.59s1.43.41,2,.6a5.25,5.25,0,0,0,1.52.29,2.32,2.32,0,0,0,1-.17c.23-.11.38-.39.48-.83H29v9.75Z"/><path class="a" d="M34.82,34.17,48.58.64h1.25L64.37,34.17h4v.65H52.86v-.65h4.29L51.78,21.79H40.69L35.58,34.17h4.11v.65H30.94v-.65Zm6.1-13H51.54L46.09,8.55Z"/><path class="a" d="M67.9,1.44V.77h7.22c1.34,0,2.66,0,4-.08s2.63-.07,4-.07A21.42,21.42,0,0,1,87,1a12.87,12.87,0,0,1,3.76,1.28,8.15,8.15,0,0,1,2.8,2.45,6.41,6.41,0,0,1,1.12,3.82A5.53,5.53,0,0,1,93.57,12,9.16,9.16,0,0,1,91,14.35a14.28,14.28,0,0,1-3.18,1.39,20.57,20.57,0,0,1-2.8.62v.19a26.79,26.79,0,0,1,3.88.62,12.32,12.32,0,0,1,3.68,1.51,8.8,8.8,0,0,1,2.8,2.7,7.58,7.58,0,0,1,1.11,4.21,7.23,7.23,0,0,1-1.41,4.59,10.25,10.25,0,0,1-3.44,2.87,15.06,15.06,0,0,1-4.33,1.46,24.68,24.68,0,0,1-4.11.41c-1.34,0-2.68,0-4-.05s-2.65,0-4,0H67.9v-.65h4.4V1.44ZM81.19,16.22a8.39,8.39,0,0,0,3.4-.56,4.22,4.22,0,0,0,1.86-1.56,5.57,5.57,0,0,0,.79-2.24,19.43,19.43,0,0,0,.17-2.53,19.83,19.83,0,0,0-.29-3.61,6.64,6.64,0,0,0-1-2.49,4.05,4.05,0,0,0-1.84-1.46,8,8,0,0,0-3-.47,9.39,9.39,0,0,0-1.06,0l-1,.1V16.22ZM82,34.3a9.93,9.93,0,0,0,2.76-.37,4.33,4.33,0,0,0,2.08-1.36,6.89,6.89,0,0,0,1.31-2.79,19.73,19.73,0,0,0,.45-4.72,19.94,19.94,0,0,0-.14-2.18,8.23,8.23,0,0,0-.79-2.7,6.16,6.16,0,0,0-2-2.31,6.1,6.1,0,0,0-3.71-1H79.21V34.15A26.08,26.08,0,0,0,82,34.3Z"/><path class="a" d="M102.43,24.2c.07.37.18.87.33,1.51a15,15,0,0,0,.7,2,15.78,15.78,0,0,0,1.14,2.2A10.56,10.56,0,0,0,106.28,32a9.86,9.86,0,0,0,2.13,1.68,8.91,8.91,0,0,0,2,.84,7.12,7.12,0,0,0,1.77.29l1.55,0a9.47,9.47,0,0,0,4.17-.78,7.62,7.62,0,0,0,2.56-2,7,7,0,0,0,1.31-2.41,7.8,7.8,0,0,0,.38-2.24,4.82,4.82,0,0,0-.84-2.92A6.72,6.72,0,0,0,119,22.59a15.77,15.77,0,0,0-3.16-1.29l-3.63-1.08a33.47,33.47,0,0,1-3.64-1.29A12.28,12.28,0,0,1,105.45,17a8.67,8.67,0,0,1-2.23-2.9,9.78,9.78,0,0,1-.84-4.3,8.36,8.36,0,0,1,.86-3.68A10.08,10.08,0,0,1,105.63,3a12.39,12.39,0,0,1,3.7-2.16A12.55,12.55,0,0,1,114,0a11.85,11.85,0,0,1,2.79.28c.8.2,1.5.39,2.11.6s1.12.41,1.6.6a3.45,3.45,0,0,0,1.27.28,1.25,1.25,0,0,0,.88-.21,2.6,2.6,0,0,0,.46-.79h.76V9.85h-.62c-.37-1.12-.78-2.22-1.22-3.3a12.32,12.32,0,0,0-1.65-2.94,7.8,7.8,0,0,0-2.54-2.13,8.2,8.2,0,0,0-3.87-.81,9.85,9.85,0,0,0-3.36.53,8,8,0,0,0-2.46,1.38,5.94,5.94,0,0,0-1.53,1.92A4.59,4.59,0,0,0,106,6.65a4.26,4.26,0,0,0,.89,2.77,7.57,7.57,0,0,0,2.32,1.89,18.38,18.38,0,0,0,3.27,1.37l3.78,1.19c1.29.42,2.55.87,3.78,1.36a13.34,13.34,0,0,1,3.24,1.89,9.22,9.22,0,0,1,2.32,2.8,8.33,8.33,0,0,1,.88,4,10.47,10.47,0,0,1-1,4.44,10.94,10.94,0,0,1-2.7,3.69,13.49,13.49,0,0,1-4.16,2.51,14.94,14.94,0,0,1-5.38.93,15.26,15.26,0,0,1-2.94-.29c-1-.19-1.88-.39-2.73-.59s-1.59-.41-2.23-.6a5.73,5.73,0,0,0-1.46-.29,1.76,1.76,0,0,0-1,.21,2,2,0,0,0-.53.89h-.76V24.22Z"/><path class="a" d="M9.54,47.26v1a3.12,3.12,0,0,1,2.75-1.4,2.46,2.46,0,0,1,2.59,1.72,3.21,3.21,0,0,1,2.95-1.72,2.6,2.6,0,0,1,2.26,1,3.87,3.87,0,0,1,.59,2.27v4.78c0,.24-.11.35-.36.35s-.4-.11-.4-.35V50.22a3.33,3.33,0,0,0-.47-1.92,2,2,0,0,0-1.77-.8A2.83,2.83,0,0,0,15.13,49v5.94c0,.24-.11.35-.36.35s-.39-.11-.39-.35V50a3,3,0,0,0-.45-1.71,2,2,0,0,0-1.77-.81A2.88,2.88,0,0,0,9.59,49v5.94c0,.24-.11.35-.36.35s-.39-.11-.39-.35V47.25a.32.32,0,0,1,.37-.36C9.48,46.89,9.54,47,9.54,47.26Z"/><path class="a" d="M29.24,47.26v1A3.12,3.12,0,0,1,32,46.82a2.48,2.48,0,0,1,2.6,1.72,3.16,3.16,0,0,1,2.94-1.72,2.6,2.6,0,0,1,2.26,1,3.8,3.8,0,0,1,.59,2.27v4.78a.29.29,0,0,1-.25.35.21.21,0,0,1-.11,0c-.26,0-.4-.11-.4-.35V50.22a3.33,3.33,0,0,0-.47-1.92,2,2,0,0,0-1.77-.8A2.82,2.82,0,0,0,34.83,49v5.94c0,.24-.11.35-.36.35s-.39-.11-.39-.35V50a3.11,3.11,0,0,0-.45-1.71,2,2,0,0,0-1.77-.81A2.87,2.87,0,0,0,29.29,49v5.94a.3.3,0,0,1-.35.35c-.25,0-.4-.11-.4-.35V47.25a.32.32,0,0,1,.37-.36C29.18,46.89,29.24,47,29.24,47.26Z"/><path class="a" d="M51.43,46.81c2.36,0,3.89,1.67,3.89,4.26s-1.53,4.29-3.89,4.29-3.89-1.68-3.89-4.27S49.05,46.81,51.43,46.81Zm0,7.91c1.87,0,3.08-1.44,3.08-3.63s-1.21-3.64-3.08-3.64-3.08,1.41-3.08,3.62,1.21,3.65,3.08,3.65Z"/><path class="a" d="M65.59,55.34a5.14,5.14,0,0,1-2.52-.62.81.81,0,0,1-.47-.87V42.54c0-.25.11-.36.35-.36s.4.11.4.36v5.15a3.62,3.62,0,0,1,2.47-.87c2.32,0,3.84,1.65,3.84,4.22A4,4,0,0,1,65.59,55.34Zm0-.66c2,0,3.27-1.44,3.27-3.61s-1.11-3.59-3.13-3.59a3.6,3.6,0,0,0-2.36.88V54a4.12,4.12,0,0,0,2.21.64Z"/><path class="a" d="M114.78,51.15h-5.59c0,2.08,1.06,3.53,3.11,3.53a3.17,3.17,0,0,0,2-.62c.33-.24.44-.41.59-.41a.34.34,0,0,1,.33.34c0,.14-.2.36-.46.59a4.11,4.11,0,0,1-2.53.81c-2.42,0-3.85-1.64-3.85-4.25s1.39-4.29,3.58-4.29a3.35,3.35,0,0,1,3.4,3.64C115.4,51.09,115.25,51.15,114.78,51.15Zm-.17-.59c0-1.83-1-3.12-2.64-3.12s-2.63,1.25-2.78,3.12Z"/><path class="a" d="M123.39,47.26v1a3.27,3.27,0,0,1,2.85-1.4,2.79,2.79,0,0,1,2.36,1,3.8,3.8,0,0,1,.59,2.27v4.78c0,.24-.11.35-.36.35s-.39-.11-.39-.35V50.22a3.31,3.31,0,0,0-.48-1.91,2.17,2.17,0,0,0-1.87-.81A3,3,0,0,0,123.41,49v5.95c0,.24-.11.35-.36.35s-.39-.11-.39-.35V47.25a.32.32,0,0,1,.37-.36C123.3,46.89,123.39,47,123.39,47.26Z"/><path class="a" d="M0,47.22s0-.31.38-.31.37.31.37.31V55s.05.32-.37.32S0,55,0,55Z"/><path class="a" d="M76.92,47.22s0-.31.38-.31.38.31.38.31V55s0,.32-.38.32-.38-.32-.38-.32Z"/><path class="a" d="M100.48,47.22s0-.31.39-.31.37.31.37.31V55s.05.32-.37.32-.39-.32-.39-.32Z"/><path class="a" d="M88.51,42.53s0-.31.38-.31.37.31.37.31v9.62s0,.31-.37.31-.38-.31-.38-.31Z"/></svg>