<?xml version="1.0" encoding="UTF-8" standalone="no"?>
<!-- Created with Inkscape (http://www.inkscape.org/) -->
<svg
   xmlns:svg="http://www.w3.org/2000/svg"
   xmlns="http://www.w3.org/2000/svg"
   version="1.0"
   width="744.09448"
   height="291.61417"
   id="svg6264">
  <defs
     id="defs6266" />
  <g
     transform="translate(-188.77433,105.74144)"
     style="display:inline"
     id="layer2">
    <g
       transform="translate(17.716551,17.715403)"
       id="g7883">
      <path
         d="M 517.57471,-5.9270401 C 519.27321,-23.457425 530.00961,-36.814973 551.18871,-36.689133 C 573.83581,-36.542423 580.81851,-22.450918 581.95081,-5.9270401 L 517.57471,-5.9270401 z M 606.00281,37.878097 C 591.86941,44.986767 577.44241,50.480711 559.09421,50.480711 C 535.65041,50.480711 519.02171,39.639535 517.57471,17.453831 L 618.10211,17.453831 C 618.10211,-28.301403 604.59781,-61.663753 548.92411,-61.579863 C 503.75601,-61.516943 481.44441,-30.335392 481.44441,7.5353689 C 481.44441,50.480711 509.39671,75.392415 557.39571,75.392415 C 577.71511,75.392415 593.52601,70.56941 607.36581,63.691444 L 606.00281,37.878097"
         style="fill:#da0021;fill-rule:evenodd;stroke:none"
         id="path2075" />
      <path
         d="M 633.03231,71.638836 L 670.86121,71.638836 L 670.86121,8.1015409 L 671.42741,8.1015409 L 721.71201,71.638836 L 767.99161,71.638836 L 708.43841,-0.62175405 L 761.28131,-59.294193 L 719.23761,-59.294193 L 671.46941,-7.1852241 L 670.86121,-6.8916021 L 670.86121,-105.59463 L 633.03231,-105.59463 L 633.03231,71.638836"
         style="fill:#da0021;fill-rule:nonzero;stroke:none"
         id="path2077" />
      <path
         d="M 783.57181,-23.625209 C 796.27931,-32.264613 811.90151,-37.381143 827.98501,-37.381143 C 850.29651,-37.381143 860.73931,-30.272473 860.73931,-9.1772661 L 839.85371,-9.1772661 C 824.04281,-9.1772661 805.40091,-7.8981091 790.99501,-1.5443701 C 776.58901,4.8092709 766.14631,16.237691 766.14631,35.802065 C 766.14631,59.476558 791.28861,74.679431 816.97611,74.679431 C 834.19201,74.679431 853.10641,66.543281 861.87161,52.074365 L 862.43781,52.074365 C 862.71041,56.14244 862.71041,64.781843 864.13631,71.638836 L 897.43571,71.638836 C 896.59701,61.468698 895.59041,50.962992 895.29691,41.044431 C 895.02421,31.377547 895.19201,22.843008 895.19201,9.6322759 L 895.19201,-7.1432781 C 895.19201,-45.768963 876.84381,-62.292843 832.49341,-62.292843 C 816.40991,-62.292843 796.13251,-58.371583 781.45391,-52.269423 L 783.57181,-23.625209 z M 802.29751,33.768076 C 801.96201,13.700351 827.41891,11.16301 844.36221,11.16301 L 860.73931,11.16301 C 860.73931,21.312274 859.04081,30.727482 852.83381,38.087828 C 846.89941,45.196398 837.86171,49.7887 826.28651,49.7887 C 812.74031,49.7887 802.46531,43.749556 802.29751,33.768076"
         style="fill:#da0021;fill-rule:evenodd;stroke:none"
         id="path2079" />
      <path
         d="M 301.10745,-72.504933 L 362.67368,-72.504933 C 395.11341,-72.169463 429.88066,-55.750353 429.88066,-17.124659 C 429.88066,21.500933 395.70056,37.982963 362.67368,37.982963 L 338.81053,37.982963 L 338.81053,-39.268413 L 301.10745,-39.268413 L 301.10745,71.638836 L 355.04078,71.638836 C 415.47466,71.638836 468.27565,51.193695 468.84182,-17.06174 C 469.40799,-87.435153 412.3293,-105.6156 355.04078,-105.74144 L 301.10745,-105.74144 L 301.10745,-72.504933"
         style="fill:#da0021;fill-rule:nonzero;stroke:none"
         id="path2081" />
      <path
         d="M 244.95138,-6.3464021 L 282.40278,-6.3464021 L 282.40278,71.638836 L 244.95138,71.638836 L 244.95138,-6.3464021 z "
         style="fill:#da0021;fill-rule:nonzero;stroke:none"
         id="path2083" />
      <path
         d="M 188.77433,26.575614 L 226.22573,26.575614 L 226.22573,71.638836 L 188.77433,71.638836 L 188.77433,26.575614 z "
         style="fill:#da0021;fill-rule:nonzero;stroke:none"
         id="path2085" />
      <path
         d="M 413.77614,128.46595 C 414.21648,123.72684 417.13124,120.16211 422.85588,120.16211 C 428.58053,120.16211 430.8662,123.99949 431.15982,128.46595 L 413.77614,128.46595 z M 438.03778,140.14595 C 434.22138,142.07517 429.94358,143.71077 424.99484,143.71077 C 418.6411,143.71077 414.21648,140.48142 413.77614,134.77774 L 440.93157,134.77774 C 440.93157,122.4268 436.82155,113.43086 422.22679,113.43086 C 410.02267,113.43086 404.0044,121.88161 404.0044,132.11466 C 404.0044,143.71077 411.5534,150.44192 424.53343,150.44192 C 430.02747,150.44192 434.30518,149.47736 438.03778,147.63203 L 438.03778,140.14595"
         style="fill:#da0021;fill-rule:evenodd;stroke:none"
         id="path2087" />
      <path
         d="M 590.86291,128.46595 C 591.32421,123.72684 594.21801,120.16211 599.94261,120.16211 C 605.66731,120.16211 607.95291,123.99949 608.26751,128.46595 L 590.86291,128.46595 z M 615.12451,140.14595 C 611.30801,142.07517 607.03031,143.71077 602.08151,143.71077 C 595.74871,143.71077 591.32421,140.48142 590.86291,134.77774 L 618.01831,134.77774 C 618.01831,122.4268 613.90831,113.43086 599.33451,113.43086 C 587.10931,113.43086 581.09111,121.88161 581.09111,132.11466 C 581.09111,143.71077 588.64011,150.44192 601.62021,150.44192 C 607.11421,150.44192 611.39191,149.47736 615.12451,147.63203 L 615.12451,140.14595"
         style="fill:#da0021;fill-rule:evenodd;stroke:none"
         id="path2089" />
      <path
         d="M 730.01601,132.17758 C 730.01601,142.34772 737.58581,150.44192 750.54501,150.44192 C 763.60891,150.44192 771.15791,142.34772 771.15791,132.17758 C 771.15791,120.49758 762.22501,113.43086 750.54501,113.43086 C 738.94891,113.43086 730.01601,120.49758 730.01601,132.17758 z M 740.71031,131.06621 C 740.71031,125.7819 743.91861,120.5605 750.54501,120.5605 C 757.27621,120.5605 760.46361,125.65606 760.46361,131.06621 C 760.46361,136.97951 758.40851,143.29131 750.54501,143.29131 C 742.76531,143.29131 740.71031,136.9166 740.71031,131.06621"
         style="fill:#da0021;fill-rule:evenodd;stroke:none"
         id="path2091" />
      <path
         d="M 832.99671,131.84201 C 832.99671,127.103 834.82111,120.5605 841.46841,120.5605 C 848.03181,120.5605 850.61111,126.89327 850.61111,131.84201 C 850.61111,136.85378 848.40931,143.29131 841.61511,143.29131 C 834.90491,143.29131 832.99671,136.70696 832.99671,131.84201 z M 850.98851,149.62407 L 860.92801,149.62407 L 860.92801,98.102248 L 850.69501,98.102248 L 850.69501,118.3797 L 850.54821,118.3797 C 847.48661,115.00364 843.90081,113.43086 838.78431,113.43086 C 826.72691,113.43086 822.30231,122.07026 822.30231,131.84201 C 822.30231,141.509 826.72691,150.44192 838.78431,150.44192 C 843.58631,150.44192 847.80121,149.07887 850.84171,145.63989 L 850.98851,145.63989 L 850.98851,149.62407"
         style="fill:#da0021;fill-rule:evenodd;stroke:none"
         id="path2093" />
      <path
         d="M 301.10745,149.62407 L 311.80192,149.62407 L 311.80192,101.68804 L 301.10745,101.68804 L 301.10745,149.62407 z "
         style="fill:#da0021;fill-rule:nonzero;stroke:none"
         id="path2095" />
      <path
         d="M 321.19615,149.62407 L 331.42921,149.62407 L 331.42921,132.30342 C 331.42921,127.77394 333.02296,120.5605 340.42515,120.5605 C 346.98853,120.5605 347.07242,126.41099 347.07242,130.73064 L 347.07242,149.62407 L 357.2845,149.62407 L 357.2845,127.29166 C 357.2845,119.32329 353.25837,113.40989 343.94803,113.40989 C 338.6008,113.40989 334.2392,115.00364 331.03082,119.05074 L 330.88401,119.05074 L 330.88401,114.24871 L 321.19615,114.24871 L 321.19615,149.62407"
         style="fill:#da0021;fill-rule:nonzero;stroke:none"
         id="path2097" />
      <path
         d="M 375.67468,149.62407 L 387.20787,149.62407 L 401.69776,114.24871 L 391.48567,114.24871 L 382.02842,139.99914 L 381.86074,139.99914 L 372.08899,114.24871 L 361.101,114.24871 L 375.67468,149.62407"
         style="fill:#da0021;fill-rule:nonzero;stroke:none"
         id="path2099" />
      <path
         d="M 474.08419,114.73099 C 470.87591,114.1019 467.75142,113.43086 462.94949,113.43086 C 454.9182,113.43086 447.51591,116.78605 447.51591,124.41885 C 447.51591,137.18924 465.29797,132.45013 465.29797,139.39102 C 465.29797,142.83 461.18805,143.71077 458.58779,143.71077 C 455.08589,143.71077 451.7308,142.83 448.52252,141.38316 L 447.9144,148.93216 C 451.64691,149.8338 455.61011,150.44192 459.5105,150.44192 C 467.81434,150.44192 475.99244,147.14975 475.99244,138.90874 C 475.99244,126.13834 458.21037,129.70316 458.21037,124.0624 C 458.21037,121.04278 461.48157,120.16211 464.22855,120.16211 C 467.98212,120.16211 470.26779,120.70731 473.39218,121.67187 L 474.08419,114.73099"
         style="fill:#da0021;fill-rule:nonzero;stroke:none"
         id="path2101" />
      <path
         d="M 487.98691,138.97166 C 487.98691,145.97546 492.41141,150.44192 500.44271,150.44192 C 503.48331,150.44192 505.85291,150.16927 507.99171,149.62407 L 507.67721,142.34772 C 506.60781,142.95584 504.86731,143.29131 503.02201,143.29131 C 499.14271,143.29131 498.22001,140.48142 498.22001,137.46189 L 498.22001,120.97986 L 507.29971,120.97986 L 507.29971,114.24871 L 498.22001,114.24871 L 498.22001,104.22528 L 487.98691,107.18199 L 487.98691,114.24871 L 480.43791,114.24871 L 480.43791,120.97986 L 487.98691,120.97986 L 487.98691,138.97166"
         style="fill:#da0021;fill-rule:nonzero;stroke:none"
         id="path2103" />
      <path
         d="M 516.63111,149.62407 L 526.86421,149.62407 L 526.86421,132.45013 C 526.86421,127.85783 527.70301,120.5605 534.49711,120.5605 C 540.36851,120.5605 540.36851,125.2367 540.36851,128.52887 L 540.36851,149.62407 L 550.60161,149.62407 L 550.60161,132.45013 C 550.60161,127.85783 551.44041,120.5605 558.23451,120.5605 C 564.10591,120.5605 564.10591,125.2367 564.10591,128.52887 L 564.10591,149.62407 L 574.33901,149.62407 L 574.33901,127.29166 C 574.33901,119.40718 571.59191,113.43086 561.88311,113.43086 C 557.08121,113.43086 551.96461,115.423 549.61611,119.67973 C 547.39331,115.27619 543.49291,113.43086 537.99901,113.43086 C 534.18261,113.43086 529.52741,114.85683 526.34001,119.19745 L 526.17221,119.19745 L 526.17221,114.24871 L 516.63111,114.24871 L 516.63111,149.62407"
         style="fill:#da0021;fill-rule:nonzero;stroke:none"
         id="path2105" />
      <path
         d="M 625.35761,149.62407 L 635.59061,149.62407 L 635.59061,132.30342 C 635.59061,127.77394 637.18431,120.5605 644.58651,120.5605 C 651.15001,120.5605 651.23391,126.41099 651.23391,130.73064 L 651.23391,149.62407 L 661.44591,149.62407 L 661.44591,127.29166 C 661.44591,119.32329 657.41981,113.43086 648.10941,113.43086 C 642.76221,113.43086 638.40051,115.00364 635.21321,119.05074 L 635.04541,119.05074 L 635.04541,114.24871 L 625.35761,114.24871 L 625.35761,149.62407"
         style="fill:#da0021;fill-rule:nonzero;stroke:none"
         id="path2107" />
      <path
         d="M 674.50991,138.97166 C 674.50991,145.97546 678.93451,150.44192 686.94481,150.44192 C 690.00631,150.44192 692.37581,150.16927 694.51471,149.62407 L 694.20021,142.34772 C 693.13071,142.95584 691.36931,143.29131 689.54491,143.29131 C 685.64471,143.29131 684.74291,140.48142 684.74291,137.46189 L 684.74291,120.97986 L 693.82281,120.97986 L 693.82281,114.24871 L 684.74291,114.24871 L 684.74291,104.22528 L 674.50991,107.18199 L 674.50991,114.24871 L 666.96091,114.24871 L 666.96091,120.97986 L 674.50991,120.97986 L 674.50991,138.97166"
         style="fill:#da0021;fill-rule:nonzero;stroke:none"
         id="path2109" />
      <path
         d="M 708.20781,149.62407 L 718.41991,149.62407 L 718.41991,120.97986 L 727.35281,120.97986 L 727.35281,114.24871 L 718.41991,114.24871 L 718.41991,109.84516 C 718.41991,107.09809 719.48931,104.43501 722.92831,104.43501 C 725.13001,104.43501 726.43021,105.18994 727.35281,105.67222 L 728.19161,98.039329 C 726.19951,97.619967 723.30571,97.284399 720.70551,97.284399 C 712.63231,97.284399 708.20781,102.23324 708.20781,109.29996 L 708.20781,114.24871 L 700.63781,114.24871 L 700.63781,120.97986 L 708.20781,120.97986 L 708.20781,149.62407"
         style="fill:#da0021;fill-rule:nonzero;stroke:none"
         id="path2111" />
      <path
         d="M 778.56011,149.62407 L 788.79321,149.62407 L 788.79321,132.30342 C 788.79321,127.77394 790.38691,120.5605 797.78911,120.5605 C 804.35251,120.5605 804.43641,126.41099 804.43641,130.73064 L 804.43641,149.62407 L 814.66941,149.62407 L 814.66941,127.29166 C 814.66941,119.32329 810.62231,113.43086 801.31201,113.43086 C 795.96481,113.43086 791.62401,115.00364 788.41581,119.05074 L 788.24801,119.05074 L 788.24801,114.24871 L 778.56011,114.24871 L 778.56011,149.62407"
         style="fill:#da0021;fill-rule:nonzero;stroke:none"
         id="path2113" />
      <path
         d="M 895.40171,114.73099 C 892.19341,114.1019 889.06901,113.43086 884.26701,113.43086 C 876.25661,113.43086 868.85441,116.78605 868.85441,124.41885 C 868.85441,137.18924 886.63651,132.45013 886.63651,139.39102 C 886.63651,142.83 882.50551,143.71077 879.90541,143.71077 C 876.40351,143.71077 873.04841,142.83 869.84001,141.38316 L 869.23191,148.93216 C 872.96451,149.8338 876.92771,150.44192 880.82801,150.44192 C 889.15291,150.44192 897.30991,147.14975 897.30991,138.90874 C 897.30991,126.13834 879.52781,129.70316 879.52781,124.0624 C 879.52781,121.04278 882.82011,120.16211 885.56711,120.16211 C 889.29961,120.16211 891.58531,120.70731 894.70971,121.67187 L 895.40171,114.73099"
         style="fill:#da0021;fill-rule:nonzero;stroke:none"
         id="path2115" />
    </g>
  </g>
  <g
     transform="translate(-196.6871,-371.54249)"
     style="display:inline"
     id="layer1" />
</svg>
