<svg xmlns="http://www.w3.org/2000/svg" viewBox="0 0 333 71"><g id="f4a62abb-ff3d-4763-91bf-4ffba5db693e" data-name="Ebene 2"><g id="b17b3c28-98d8-476f-845d-074a933fc596" data-name="Ebene 1"><path d="M88.54,3.61h3.35V17.5a10.43,10.43,0,0,1,15.81-1.13c1.17,1.47,1.68,3.5,1.68,6.78V41.28H106V23.6c0-2.43-.34-3.89-1.07-5a5.87,5.87,0,0,0-5.08-2.32c-4.69,0-8,3.45-8,8.3V41.28H88.54Z" fill="#1967a7"/><path d="M141.11,27.84c0,8.41-5,14.17-12.4,14.17s-12.45-5.7-12.45-14.4,5-14.34,12.4-14.34C136.25,13.27,141.11,19,141.11,27.84Zm-21.34-.23c0,7,3.47,11.41,8.94,11.41s8.88-4.46,8.88-11.24c0-7.12-3.46-11.52-8.93-11.52S119.77,20.72,119.77,27.61Zm6-18.69h-3.52V4h3.52Zm9.27,0h-3.52V4h3.52Z" fill="#1967a7"/><path d="M151.67,14l-.17,4.91c1.95-3.84,4.08-5.3,7.71-5.3a8.63,8.63,0,0,1,1.11.05v3.39a4.54,4.54,0,0,0-.78-.06,7.3,7.3,0,0,0-6.09,3.34,10.34,10.34,0,0,0-1.78,6.55v14.4h-3.36V14Z" fill="#1967a7"/><path d="M186.82,14V38.23c0,4.63-.73,7.06-2.68,9.09-2.12,2.14-5.42,3.33-9.27,3.33-6,0-10.06-2.77-10.45-7.28h3.52c.34,2.82,2.74,4.29,7,4.29,5.86,0,8.66-2.88,8.66-8.93V36.19c-2.52,3.17-5.37,4.63-8.94,4.63-7,0-11.95-5.64-11.95-13.66s5-13.89,12.06-13.89A9.74,9.74,0,0,1,183.64,18V14ZM166.27,27.05c0,6.49,3.46,10.78,8.71,10.78s8.66-4.29,8.66-10.61c0-3.51-.79-6.1-2.4-8a8.1,8.1,0,0,0-6.32-3C169.73,16.26,166.27,20.61,166.27,27.05Z" fill="#1967a7"/><path d="M210.72,21.85c-.67-3.9-2.79-5.59-6.87-5.59s-6.36,1.75-6.36,4.63c0,2.09,1.22,3.33,4,4l6.7,1.64c4.41,1.07,6.37,3.16,6.37,6.83,0,5.25-4.14,8.64-10.45,8.64-3.91,0-7.15-1.24-9-3.5-1.29-1.58-1.79-3.11-1.9-5.93h3.52Q197.09,39,204.3,39c4.13,0,6.76-2,6.76-5.2,0-2.2-1.4-3.5-4.36-4.23L200.22,28c-4.24-1-6.25-3.28-6.25-7,0-4.8,3.85-7.79,10-7.79s9.77,3,10.11,8.58Z" fill="#1967a7"/><path d="M230,16.71h-4.19V36c0,1.92.39,2.48,1.85,2.48a10.71,10.71,0,0,0,2.34-.34v3.11a14.2,14.2,0,0,1-3.29.45c-3.24,0-4.42-1.41-4.42-5.42V16.71h-3.85V14h3.85V6h3.52v8H230Z" fill="#1967a7"/><path d="M236.5,28.18C236.72,35,240,39,245.38,39c3.85,0,6.53-2.09,7.93-6.27h3.41C254.82,38.9,251,42,245.27,42c-7.43,0-12.13-5.48-12.13-14.23s4.81-14.51,12-14.51A10.66,10.66,0,0,1,255.82,21a22.46,22.46,0,0,1,.9,7.18Zm16.81-2.71c-.34-5.82-3.3-9.21-8-9.21s-7.77,3.28-8.61,9.21Z" fill="#1967a7"/><path d="M271.15,16.71H267V36c0,1.92.39,2.48,1.84,2.48a10.78,10.78,0,0,0,2.35-.34v3.11a14.33,14.33,0,0,1-3.3.45c-3.24,0-4.41-1.41-4.41-5.42V16.71h-3.85V14h3.85V6H267v8h4.19Z" fill="#1967a7"/><path d="M287.09,16.71H282.9V36c0,1.92.39,2.48,1.84,2.48a10.78,10.78,0,0,0,2.35-.34v3.11a14.33,14.33,0,0,1-3.3.45c-3.24,0-4.41-1.41-4.41-5.42V16.71h-3.86V14h3.86V6h3.52v8h4.19Z" fill="#1967a7"/><path d="M293.61,28.18C293.84,35,297.13,39,302.49,39c3.86,0,6.54-2.09,7.93-6.27h3.41c-1.9,6.15-5.75,9.26-11.45,9.26-7.43,0-12.12-5.48-12.12-14.23s4.8-14.51,12-14.51A10.68,10.68,0,0,1,312.94,21a22.48,22.48,0,0,1,.89,7.18Zm16.81-2.71c-.33-5.82-3.29-9.21-8-9.21s-7.76,3.28-8.6,9.21Z" fill="#1967a7"/><path d="M324.34,14l-.17,4.91c2-3.84,4.08-5.3,7.71-5.3a8.86,8.86,0,0,1,1.12.05v3.39a4.54,4.54,0,0,0-.78-.06,7.3,7.3,0,0,0-6.09,3.34,10.28,10.28,0,0,0-1.79,6.55v14.4H321V14Z" fill="#1967a7"/><path d="M10.38,21.58c5.52,0,8.62,1.93,10.31,6.4,2.5-4.39,6-6.4,11.34-6.4A12.53,12.53,0,0,1,39,23.46V8.85h4.41V27.16c2.58-3.79,6.19-5.58,11-5.58,4.12,0,7.73,1.49,9.79,4.09,1.55,1.94,2.21,4.62,2.21,8.94V51.12A35.57,35.57,0,0,0,34.9,0,35.17,35.17,0,0,0,1.21,25.5C3.47,22.8,6.35,21.58,10.38,21.58Z" fill="#1967a7" fill-rule="evenodd"/><path d="M62,35.2c0-3.2-.44-5.13-1.4-6.62-1.25-1.94-3.75-3.06-6.7-3.06-6.18,0-10.53,4.55-10.53,11v22H38.88V33.86c0-5.58-2.51-8.34-7.59-8.34-3.46,0-6.18,1.34-7.8,3.88-1.25,2-1.77,4.31-1.77,8.18V58.5H17.3V33.86c0-2.9-.36-4.54-1.47-5.88a7.29,7.29,0,0,0-5.89-2.46C3.83,25.52,0,29.77,0,36.39v3A35.26,35.26,0,0,0,34.9,71,34.89,34.89,0,0,0,62,58.05Z" fill="#1967a7" fill-rule="evenodd"/><path d="M188.74,62.05l-2,5.27h-1.69l6.4-16.72h1.74l6.52,16.72H198l-2-5.27Zm3.57-9.72-3.08,8.4h6.25Z" fill="#9d9d9b"/><path d="M206.34,55.21l-.07,2.18c.87-1.7,1.81-2.36,3.42-2.36a3,3,0,0,1,.5,0v1.5a2.74,2.74,0,0,0-.35,0,3.25,3.25,0,0,0-2.7,1.48,4.59,4.59,0,0,0-.8,2.91v6.39h-1.49V55.21Z" fill="#9d9d9b"/><path d="M223.08,59a3.14,3.14,0,0,0-3.32-2.76c-2.41,0-3.92,1.91-3.92,5s1.54,5.14,4,5.14c1.86,0,3.07-1.16,3.39-3.24h1.44c-.44,2.91-2.25,4.56-4.91,4.56-3.27,0-5.38-2.45-5.38-6.34s2.18-6.42,5.48-6.42A4.5,4.5,0,0,1,224.59,59Z" fill="#9d9d9b"/><path d="M230.25,50.6h1.48v6.16a4.63,4.63,0,0,1,7-.5,4.64,4.64,0,0,1,.75,3v8H238V59.47a4,4,0,0,0-.47-2.23,2.64,2.64,0,0,0-2.26-1,3.48,3.48,0,0,0-3.55,3.69v7.42h-1.48Z" fill="#9d9d9b"/><path d="M247.58,52.6h-1.49v-2h1.49Zm0,14.72h-1.49V55.21h1.49Z" fill="#9d9d9b"/><path d="M258,56.41h-1.86V65c0,.85.17,1.11.81,1.11a5,5,0,0,0,1-.15v1.37a6.49,6.49,0,0,1-1.47.2c-1.44,0-2-.62-2-2.4V56.41h-1.71v-1.2h1.71V51.68h1.57v3.53H258Z" fill="#9d9d9b"/><path d="M264.07,61.5c.09,3,1.56,4.82,3.94,4.82a3.54,3.54,0,0,0,3.52-2.79H273c-.84,2.74-2.55,4.11-5.08,4.11-3.3,0-5.38-2.43-5.38-6.31s2.13-6.45,5.33-6.45a4.74,4.74,0,0,1,4.74,3.44A10.16,10.16,0,0,1,273,61.5Zm7.46-1.2c-.15-2.58-1.46-4.09-3.57-4.09s-3.45,1.46-3.82,4.09Z" fill="#9d9d9b"/><path d="M288.71,67.32H286.9l-4.36-6.67-2.11,2v4.71h-1.49V50.6h1.49V60.93l6.1-5.72h2l-4.91,4.54Z" fill="#9d9d9b"/><path d="M298.36,56.41H296.5V65c0,.85.17,1.11.82,1.11a4.94,4.94,0,0,0,1-.15v1.37a6.42,6.42,0,0,1-1.47.2c-1.43,0-1.95-.62-1.95-2.4V56.41h-1.72v-1.2h1.72V51.68h1.56v3.53h1.86Z" fill="#9d9d9b"/><path d="M311.38,67.32V65.61a4,4,0,0,1-3.75,2,4,4,0,0,1-3.15-1.25,4.15,4.15,0,0,1-.79-2.91V55.21h1.49v7.92a3.29,3.29,0,0,0,.57,2.36,2.62,2.62,0,0,0,2.05.83,3.58,3.58,0,0,0,2.61-1.06,3.82,3.82,0,0,0,1-2.93V55.21h1.48V67.32Z" fill="#9d9d9b"/><path d="M320.94,55.21l-.07,2.18c.87-1.7,1.81-2.36,3.42-2.36a2.91,2.91,0,0,1,.5,0v1.5a2.74,2.74,0,0,0-.35,0,3.25,3.25,0,0,0-2.7,1.48,4.59,4.59,0,0,0-.8,2.91v6.39h-1.48V55.21Z" fill="#9d9d9b"/></g></g></svg>