<svg version="1.1" id="Ebene_1" xmlns="http://www.w3.org/2000/svg" xmlns:xlink="http://www.w3.org/1999/xlink" x="0px" y="0px" width="85px" height="15.3px" viewBox="0 0 85 15.3" style="enable-background:new 0 0 85 15.3;" xml:space="preserve">
<style type="text/css">
	.st0{fill:#FFFFFF;}
</style>
<path id="iNTEGA" class="st0" d="M83.7,1.9c0-0.4-0.3-0.7-0.8-0.7h-1v2.2h0.4V2.6h0.4l0.5,0.8h0.5l-0.6-0.8
	C83.5,2.5,83.7,2.2,83.7,1.9z M82.9,2.3h-0.5V1.6h0.5c0.3,0,0.4,0.1,0.4,0.4C83.3,2.1,83.1,2.3,82.9,2.3z M82.8,0
	c-1.3,0-2.3,1-2.3,2.3s1,2.2,2.3,2.2s2.3-1,2.3-2.3C85,1,84.1,0,82.8,0z M82.8,4.1c-1.1,0-1.8-0.8-1.8-1.8s0.8-1.8,1.8-1.8
	s1.8,0.8,1.8,1.8C84.6,3.4,83.8,4.1,82.8,4.1z M4.2,6.1V15c0,0.1-0.1,0.2-0.2,0.2H0.2C0.1,15.1,0,15.1,0,15V6.1C0,6,0.1,5.9,0.2,5.9
	H4C4.1,5.9,4.2,6,4.2,6.1z M21.2,0.4V15c0,0.1-0.1,0.2-0.2,0.2h-3.7c-0.1,0-0.1,0-0.2-0.1l-5.7-8.5c0-0.1-0.2,0-0.2,0.1V15
	c0,0.1-0.1,0.2-0.2,0.2H7.6c-0.1,0-0.2-0.1-0.2-0.2V0.4c0-0.1,0.1-0.2,0.2-0.2h3.9c0.1,0,0.1,0,0.2,0.1l5.5,8.2c0,0.1,0.2,0,0.2-0.1
	v-8c0-0.1,0.1-0.2,0.2-0.2H21C21.1,0.2,21.2,0.3,21.2,0.4z M35.2,0.4v3.1c0,0.1-0.1,0.2-0.2,0.2h-3.8c0,0-0.1,0-0.1,0.1V15
	c0,0.1-0.1,0.2-0.2,0.2h-3.7c-0.1,0-0.2-0.1-0.2-0.2V3.8c0,0,0-0.1-0.1-0.1h-3.8c-0.1,0-0.2-0.1-0.2-0.2V0.4c0-0.1,0.1-0.2,0.2-0.2
	H35C35.1,0.2,35.2,0.3,35.2,0.4z M48.5,11.8V15c0,0.1-0.1,0.2-0.2,0.2H37.2c-0.1,0-0.2-0.1-0.2-0.2V0.4c0-0.1,0.1-0.2,0.2-0.2h10.9
	c0.1,0,0.2,0.1,0.2,0.2v3.1c0,0.1-0.1,0.2-0.2,0.2h-7c0,0-0.1,0-0.1,0.1v1.9c0,0.1,0,0.1,0.1,0.1H47c0.1,0,0.2,0.1,0.2,0.2v3
	c0,0.1-0.1,0.2-0.2,0.2h-5.9c0,0-0.1,0-0.1,0.1v2.3c0,0.1,0,0.1,0.1,0.1h7.2C48.4,11.6,48.5,11.7,48.5,11.8z M65.3,7.8
	c0,4.2-2.9,7.5-7.4,7.5s-7.8-3.3-7.8-7.6S53.5,0,58,0c3.5,0,5.3,1.8,5.8,2.2c0.1,0.1,0.1,0.2,0,0.3l-2.6,2.6c-0.1,0.1-0.2,0.1-0.3,0
	c-0.3-0.4-1.3-1.3-3-1.3c-2.2,0-3.8,1.7-3.8,4s1.6,4,3.8,4c1.6,0,2.8-0.7,3.1-2c0-0.1,0-0.1-0.1-0.1h-3.1c-0.1,0-0.2-0.1-0.2-0.2
	V6.9c0-0.1,0.1-0.2,0.2-0.2H65c0.1,0,0.2,0.1,0.2,0.2C65.2,7.1,65.3,7.5,65.3,7.8z M74.6,0.2h-3.8c-0.1,0-0.2,0-0.2,0.1l-5.7,14.6
	c-0.1,0.1,0,0.3,0.2,0.3h3.8c0.1,0,0.2-0.1,0.2-0.1l0.8-2.3c0-0.1,0.1-0.1,0.2-0.1h5c0.1,0,0.2,0.1,0.2,0.1L76,15
	c0,0.1,0.1,0.1,0.2,0.1h4.1c0.1,0,0.2-0.1,0.2-0.3L74.7,0.3L74.6,0.2z M73.9,9.4h-2.8C71,9.4,71,9.3,71,9.3l1.4-4.1
	c0-0.1,0.2-0.1,0.2,0L73.9,9.4C74.1,9.3,74,9.4,73.9,9.4z M4.3,0.4c-0.1,2.2-1.9,4-4.1,4.1C0.1,4.5,0,4.4,0,4.3c0-0.7,0-3.2,0-3.9
	c0-0.1,0.1-0.2,0.2-0.2c0.7,0,3.2,0,3.9,0C4.2,0.2,4.3,0.3,4.3,0.4z"></path>
</svg>