<svg class="logo" xmlns="http://www.w3.org/2000/svg" viewBox="0 0 141.73 45.32">
<path d="M11,17.54V43.89a1.42,1.42,0,1,1-2.83,0v-15a7.55,7.55,0,0,1-2.86.72,5,5,0,0,1-3.82-1.49,5.61,5.61,0,0,1-1.51-4V20.65a5.48,5.48,0,0,1,1.54-4,5.38,5.38,0,0,1,4-1.54,14,14,0,0,1,4.29.71A1.75,1.75,0,0,1,11,17.54ZM8.19,26.07v-8a10.87,10.87,0,0,0-2.67-.33,2.45,2.45,0,0,0-2.69,2.67v3.93A2.44,2.44,0,0,0,5.53,27,4.13,4.13,0,0,0,8.19,26.07Z"></path>
<path d="M23.95,16.58a1.4,1.4,0,0,1,1.4-1.43,1.42,1.42,0,0,1,1.43,1.43V27.25a1.78,1.78,0,0,1-1.21,1.68,13.15,13.15,0,0,1-4.32.72,5.56,5.56,0,0,1-4-1.49,5.57,5.57,0,0,1-1.46-4V16.58a1.42,1.42,0,1,1,2.83,0v7.75A2.43,2.43,0,0,0,21.25,27a10.77,10.77,0,0,0,2.69-.33Z"></path>
<path d="M41.9,27.25a1.78,1.78,0,0,1-1.21,1.68,13.86,13.86,0,0,1-4.45.72,5.89,5.89,0,0,1-3.93-1.21,4.15,4.15,0,0,1-1.43-3.27A3.89,3.89,0,0,1,32.3,22a5.89,5.89,0,0,1,3.93-1.21h2.83v-1a2.07,2.07,0,0,0-2.28-2.06,5,5,0,0,0-3,.74,1.59,1.59,0,0,1-.77.25,1.29,1.29,0,0,1-1.35-1.24,1.43,1.43,0,0,1,.69-1.26,8.59,8.59,0,0,1,4.76-1.1,4.52,4.52,0,0,1,4.76,4.67ZM39.07,23.4H36.23c-2.39,0-2.53,1.29-2.53,1.76S33.84,27,36.23,27a12.08,12.08,0,0,0,2.83-.36Z"></path>
<path d="M46.13,20.65a5.5,5.5,0,0,1,1.48-4,5.52,5.52,0,0,1,4-1.51,6.23,6.23,0,0,1,2.69.71V1.43A1.4,1.4,0,0,1,55.73,0a1.42,1.42,0,0,1,1.43,1.43V27.25a1.78,1.78,0,0,1-1.21,1.68,13.39,13.39,0,0,1-4.32.72,5.24,5.24,0,0,1-5.5-5.53Zm8.19-1.9a4.17,4.17,0,0,0-2.69-1A2.44,2.44,0,0,0,49,20.43v3.93A2.43,2.43,0,0,0,51.63,27a9.66,9.66,0,0,0,2.69-.36Z"></path>
<path d="M60.73,17a1.39,1.39,0,0,1-.08-.47A1.45,1.45,0,0,1,62,15.15a1.41,1.41,0,0,1,1.35.93l3,9,2.78-9a1.41,1.41,0,0,1,1.32-1,1.46,1.46,0,0,1,1.46,1.43,1.24,1.24,0,0,1-.08.44L68,28.51a1.63,1.63,0,0,1-1.54,1.13,1.76,1.76,0,0,1-1.51-1.07Z"></path>
<path d="M77,13a1.59,1.59,0,1,1,1.59-1.59A1.6,1.6,0,0,1,77,13ZM75.6,16.58A1.44,1.44,0,0,1,77,15.15a1.4,1.4,0,0,1,1.4,1.43V28.21A1.4,1.4,0,0,1,77,29.64a1.44,1.44,0,0,1-1.43-1.43Z"></path>
<path d="M85.53,23.07a3.76,3.76,0,0,1-2.64-3.77c0-2.42,2-4.15,4.76-4.15a8.19,8.19,0,0,1,3.74.69,1.39,1.39,0,0,1,.91,1.29A1.32,1.32,0,0,1,91,18.45a1.89,1.89,0,0,1-.66-.14,7.06,7.06,0,0,0-2.72-.55c-1.13,0-1.87.55-1.87,1.49a1.47,1.47,0,0,0,1.13,1.35l2.69.88a3.82,3.82,0,0,1,2.91,3.85c0,2.42-2,4.32-4.89,4.32a9.48,9.48,0,0,1-4-.77,1.37,1.37,0,0,1,.52-2.64,1.8,1.8,0,0,1,.63.16,6,6,0,0,0,2.86.63c1.32,0,2-.49,2-1.43s-.83-1.35-1.84-1.7Z"></path>
<path d="M107.74,23.87a5.78,5.78,0,1,1-11.55,0V20.93a5.78,5.78,0,1,1,11.55,0Zm-2.83-3.16A2.77,2.77,0,0,0,102,17.76,2.68,2.68,0,0,0,99,20.71v3.41a2.94,2.94,0,0,0,5.88,0Z"></path>
<path d="M112.94,29.81a1.4,1.4,0,0,1,0-2.79h27.4a1.4,1.4,0,1,1,0,2.79Z"></path>
</svg>