<?xml version="1.0" encoding="UTF-8"?> <svg xmlns="http://www.w3.org/2000/svg" xmlns:xlink="http://www.w3.org/1999/xlink" width="86.8" height="29" viewBox="0 0 86.8 29"><defs><clipPath id="clip-path"><rect id="Rectangle_1" data-name="Rectangle 1" width="85" height="27.562" fill="none"></rect></clipPath><clipPath id="clip-Custom_Size_1"><rect width="86.8" height="29"></rect></clipPath></defs><g id="Custom_Size_1" data-name="Custom Size – 1" clip-path="url(#clip-Custom_Size_1)"><g id="Group_2" data-name="Group 2" transform="translate(1 1)"><g id="Group_1" data-name="Group 1" transform="translate(0 0)" clip-path="url(#clip-path)"><path id="Path_1" data-name="Path 1" d="M52.412,9.946c-1.27-1.12-3.381-3.141-5-3.241-.49,0-.68.23-.51.46v.05a42.128,42.128,0,0,1,4.362,4.822,18.45,18.45,0,0,1,1.15-2.091" transform="translate(0.017 0.002)" fill="#00c878"></path><path id="Path_2" data-name="Path 2" d="M60.643,3.165A23.472,23.472,0,0,0,54.1,9.307a24.047,24.047,0,0,0-2.081,3.561.12.12,0,0,0,0,.14s.06.11.1.11h2.631a.422.422,0,0,0,.11-.16c1.511-3.491,3.551-5.682,6.2-8.273.48-.48,1-.93,1.481-1.38a1.371,1.371,0,0,0-1.9-.14" transform="translate(0.018 0.001)" fill="#00c878"></path><path id="Path_3" data-name="Path 3" d="M72.332,5.186h0l-.28-.25c-.94-.84-2.351-2.1-3.471-2.171-.22,0-.39,0-.45.16a.229.229,0,0,0,0,.26,29.343,29.343,0,0,1,3.131,3.471l.16.19a12.191,12.191,0,0,1,.85-1.641Z" transform="translate(0.024 0.001)" fill="#00c878"></path><path id="Path_4" data-name="Path 4" d="M79.883.355a.8.8,0,0,0-.5-.34,1.417,1.417,0,0,0-1,.23A17.411,17.411,0,0,0,73.5,4.827,18.247,18.247,0,0,0,71.95,7.478a.168.168,0,0,0,0,.16s.06.09.11.09h2a.488.488,0,0,0,.09-.13,18.531,18.531,0,0,1,4.6-6.152c.25-.24.5-.48.75-.7l.35-.32Z" transform="translate(0.025 0)" fill="#00c878"></path><path id="Path_5" data-name="Path 5" d="M62.851,10.916l-.28-.25c-.72-.64-1.8-1.611-2.671-1.661a.391.391,0,0,0-.4.15.231.231,0,0,0,0,.27,21.424,21.424,0,0,1,2.381,2.621l.19.25a14.632,14.632,0,0,1,.78-1.38" transform="translate(0.021 0.003)" fill="#00c878"></path><path id="Path_6" data-name="Path 6" d="M68.812,7.425a.643.643,0,0,0-.41-.29,1.08,1.08,0,0,0-.8.19,13.2,13.2,0,0,0-3.721,3.491,13.712,13.712,0,0,0-1.18,2V13c0,.09.06.1.13.1h1.541a.371.371,0,0,0,.07-.12,14.215,14.215,0,0,1,3.471-4.632l.57-.53.27-.24.06-.06Z" transform="translate(0.022 0.003)" fill="#00c878"></path><path id="Path_7" data-name="Path 7" d="M11.674,15.026V13.455a.46.46,0,0,0-.45-.46H.46a.47.47,0,0,0-.46.46v1.571a.46.46,0,0,0,.46.45h4V27.02a.45.45,0,0,0,.45.45H6.752a.45.45,0,0,0,.45-.45V15.476h4a.451.451,0,0,0,.47-.43v-.02" transform="translate(0 0.005)" fill="#00455b"></path><path id="Path_8" data-name="Path 8" d="M18.3,17.855a4.384,4.384,0,0,0-1.571-1,5.378,5.378,0,0,0-1.9-.33,5.06,5.06,0,0,0-2.671.7,4.689,4.689,0,0,0-1.771,1.941,6.239,6.239,0,0,0-.64,2.9,6.3,6.3,0,0,0,.62,2.9,4.473,4.473,0,0,0,1.8,1.9,5.468,5.468,0,0,0,2.791.67,5.992,5.992,0,0,0,2.241-.39,4.18,4.18,0,0,0,1.6-1.09,3.622,3.622,0,0,0,.68-1.09.451.451,0,0,0-.39-.61l-1.611-.16a.481.481,0,0,0-.44.25,1.7,1.7,0,0,1-.35.45,1.926,1.926,0,0,1-.74.45,2.927,2.927,0,0,1-1,.15,2.772,2.772,0,0,1-1.38-.34,2.232,2.232,0,0,1-.9-1,3.181,3.181,0,0,1-.32-1.461h6.892a.46.46,0,0,0,.45-.46v-.33a6.738,6.738,0,0,0-.38-2.4,4.6,4.6,0,0,0-1.01-1.651m-5.9,3.121a2.686,2.686,0,0,1,.35-1.12,2.479,2.479,0,0,1,.87-.92,2.418,2.418,0,0,1,1.29-.34,2.308,2.308,0,0,1,1.22.31,2.144,2.144,0,0,1,.82.84,2.728,2.728,0,0,1,.3,1.23Z" transform="translate(0.003 0.006)" fill="#00455b"></path><path id="Path_9" data-name="Path 9" d="M27.352,21.217l-1.861-.39a2.527,2.527,0,0,1-1.11-.45.851.851,0,0,1-.33-.72.94.94,0,0,1,.5-.84,2.359,2.359,0,0,1,1.26-.27,2.217,2.217,0,0,1,.94.18,2,2,0,0,1,.63.48,1.574,1.574,0,0,1,.22.37.451.451,0,0,0,.45.24l1.561-.14a.45.45,0,0,0,.418-.479.428.428,0,0,0-.018-.1,3.332,3.332,0,0,0-1.21-1.681,5.066,5.066,0,0,0-3.051-.87,6.24,6.24,0,0,0-2.291.4,3.551,3.551,0,0,0-1.541,1.13,2.827,2.827,0,0,0-.54,1.731,2.655,2.655,0,0,0,.74,1.941,4.275,4.275,0,0,0,2.281,1.08l1.831.37a2.452,2.452,0,0,1,1.06.44.93.93,0,0,1,.35.72,1,1,0,0,1-.52.86,2.445,2.445,0,0,1-1.37.33,2.382,2.382,0,0,1-1.37-.36,1.519,1.519,0,0,1-.59-.75.441.441,0,0,0-.45-.27l-1.731.14a.45.45,0,0,0-.418.479.428.428,0,0,0,.018.1,3.239,3.239,0,0,0,1.32,1.781,5.464,5.464,0,0,0,3.221.88,6.383,6.383,0,0,0,2.391-.43,4,4,0,0,0,1.611-1.22,2.922,2.922,0,0,0,.59-1.8,2.444,2.444,0,0,0-.75-1.851,4.709,4.709,0,0,0-2.241-1.03" transform="translate(0.007 0.006)" fill="#00455b"></path><path id="Path_10" data-name="Path 10" d="M37.452,25.479a.311.311,0,0,0-.36-.25,2.061,2.061,0,0,1-.43,0,1.366,1.366,0,0,1-.55-.1.751.751,0,0,1-.39-.34,1.426,1.426,0,0,1-.15-.72V18.727h1.751a.32.32,0,0,0,.32-.32v-1.4a.32.32,0,0,0-.32-.32H35.561V14.455a.32.32,0,0,0-.31-.32h-2a.32.32,0,0,0-.32.32v2.231H31.75a.32.32,0,0,0-.32.32v1.4a.32.32,0,0,0,.32.32h1.17v5.822a3,3,0,0,0,.43,1.691,2.589,2.589,0,0,0,1.22,1,4.09,4.09,0,0,0,1.761.29,4.52,4.52,0,0,0,.92-.11l.3-.07a.32.32,0,0,0,.23-.37Z" transform="translate(0.011 0.005)" fill="#00455b"></path><path id="Path_11" data-name="Path 11" d="M52.42,16.685h1.771a.45.45,0,0,1,.45.45v9.743a.45.45,0,0,1-.45.45H52.42a.45.45,0,0,1-.45-.45V17.135a.45.45,0,0,1,.45-.45" transform="translate(0.018 0.006)" fill="#00455b"></path><path id="Path_12" data-name="Path 12" d="M62.752,16.545h-.47a2.681,2.681,0,0,0-1.611.51,2.762,2.762,0,0,0-1,1.441h-.12v-1.35a.45.45,0,0,0-.44-.46h-1.7a.45.45,0,0,0-.45.45v9.743a.45.45,0,0,0,.45.45h1.761a.45.45,0,0,0,.46-.44V21.157a2.213,2.213,0,0,1,.31-1.18,2.128,2.128,0,0,1,.83-.8,2.429,2.429,0,0,1,1.21-.29,3.942,3.942,0,0,1,.66.05.451.451,0,0,0,.506-.386.459.459,0,0,0,0-.064V17.005a.45.45,0,0,0-.4-.46" transform="translate(0.02 0.006)" fill="#00455b"></path><path id="Path_13" data-name="Path 13" d="M73.593,13.145H71.833a.46.46,0,0,0-.46.45v4.862h-.1a4.165,4.165,0,0,0-.55-.84,2.818,2.818,0,0,0-1-.75,3.263,3.263,0,0,0-1.481-.32,4.084,4.084,0,0,0-2.2.62,4.355,4.355,0,0,0-1.581,1.841,7,7,0,0,0-.59,3,6.893,6.893,0,0,0,.58,3,4.251,4.251,0,0,0,1.561,1.861,4,4,0,0,0,2.231.64,3.482,3.482,0,0,0,1.511-.29,3.007,3.007,0,0,0,1-.73,3.989,3.989,0,0,0,.57-.85h.14v1.24a.46.46,0,0,0,.46.45h1.721a.45.45,0,0,0,.45-.45V13.6a.45.45,0,0,0-.447-.453.471.471,0,0,0-.053,0M71.143,23.769a2.518,2.518,0,0,1-.82,1.16,2.25,2.25,0,0,1-2.631,0,2.7,2.7,0,0,1-.82-1.18,5.144,5.144,0,0,1-.28-1.731,4.79,4.79,0,0,1,.28-1.711,2.543,2.543,0,0,1,.81-1.16,2.3,2.3,0,0,1,2.651,0,2.509,2.509,0,0,1,.81,1.15,4.8,4.8,0,0,1,.28,1.741,5.018,5.018,0,0,1-.28,1.731" transform="translate(0.023 0.005)" fill="#00455b"></path><path id="Path_14" data-name="Path 14" d="M47.933,17.166a4.088,4.088,0,0,0-2.181-.62,3.259,3.259,0,0,0-1.521.32,2.818,2.818,0,0,0-1,.75,4.165,4.165,0,0,0-.55.84h-.1V13.6a.46.46,0,0,0-.46-.45H40.38a.45.45,0,0,0-.45.45V26.88a.45.45,0,0,0,.45.45H42.1a.45.45,0,0,0,.45-.45v-1.24h.2a4.252,4.252,0,0,0,.56.85,3.11,3.11,0,0,0,1,.73,3.468,3.468,0,0,0,1.441.33,4,4,0,0,0,2.231-.64,4.251,4.251,0,0,0,1.561-1.861,6.893,6.893,0,0,0,.58-3,7,7,0,0,0-.59-3,4.352,4.352,0,0,0-1.6-1.881m-.83,6.572a2.7,2.7,0,0,1-.82,1.18,2.25,2.25,0,0,1-2.631,0,2.519,2.519,0,0,1-.82-1.16A5,5,0,0,1,42.551,22a5,5,0,0,1,.27-1.741,2.6,2.6,0,0,1,.82-1.15,2.3,2.3,0,0,1,2.651,0,2.543,2.543,0,0,1,.81,1.16,5,5,0,0,1,.28,1.711,5.139,5.139,0,0,1-.28,1.761" transform="translate(0.014 0.005)" fill="#00455b"></path><path id="Path_15" data-name="Path 15" d="M84.193,22.247a4.721,4.721,0,0,0-2.271-1l-1.861-.39a2.656,2.656,0,0,1-1.12-.45.873.873,0,0,1-.32-.72.94.94,0,0,1,.5-.84,2.335,2.335,0,0,1,1.25-.3,2.262,2.262,0,0,1,.95.18,2,2,0,0,1,.63.48,2.03,2.03,0,0,1,.22.37.451.451,0,0,0,.45.24l1.561-.14A.45.45,0,0,0,84.6,19.2a.428.428,0,0,0-.018-.1,3.332,3.332,0,0,0-1.21-1.681,5.068,5.068,0,0,0-3-.82,6.24,6.24,0,0,0-2.291.4,3.551,3.551,0,0,0-1.541,1.13A2.827,2.827,0,0,0,76,19.856a2.653,2.653,0,0,0,.75,1.891,4.275,4.275,0,0,0,2.281,1.08l1.821.37a2.5,2.5,0,0,1,1.07.44.93.93,0,0,1,.35.72,1,1,0,0,1-.53.86,2.8,2.8,0,0,1-2.731,0,1.519,1.519,0,0,1-.59-.75.44.44,0,0,0-.46-.27l-1.721.14a.45.45,0,0,0-.418.479.429.429,0,0,0,.018.1A3.24,3.24,0,0,0,77.16,26.7a5.459,5.459,0,0,0,3.221.85,6.386,6.386,0,0,0,2.371-.44,3.89,3.89,0,0,0,1.621-1.21,2.933,2.933,0,0,0,.6-1.8,2.523,2.523,0,0,0-.78-1.851" transform="translate(0.027 0.006)" fill="#00455b"></path></g></g></g></svg> 