<?xml version="1.0" encoding="utf-8"?><!--Generator: Adobe Illustrator 22.1.0, SVG Export Plug-In . SVG Version: 6.00 Build 0)--><svg version="1.1" id="Union_Investment_Logo" xmlns="http://www.w3.org/2000/svg" xmlns:xlink="http://www.w3.org/1999/xlink" x="0px" y="0px" viewBox="0 0 141.7 42.8" xml:space="preserve" enable-background="new 0 0 141.7 42.8"><g><path d="M27.3,4.8c-0.6-3.2-3.8-5.3-7-4.7c-3.2,0.6-5.3,3.8-4.7,7c0.6,3.2,3.8,5.3,7,4.7C25.8,11.2,27.9,8,27.3,4.8
		 M17.9,42.8c10.5,0,17.8-7.4,17.8-19V4.7l-2.1,0.4c-2.8,0.5-3.2,2.3-3.2,5.5v12.8c0,5.6-3.7,8.7-8.4,8.7c-4.5,0-8.4-3.1-8.4-8.7
		V13.1c0-2.5-1.7-3.7-4-3.3L0,11.6v12.2C0,35.5,7,42.8,17.9,42.8 M70.3,11c0.7,0,1.3-0.6,1.3-1.3c0-0.7-0.6-1.3-1.3-1.3
		c-0.7,0-1.3,0.6-1.3,1.3C69,10.4,69.6,11,70.3,11 M75.8,17.1c0,1.8,0.9,3,2.3,3c1.4,0,2.4-1.2,2.4-3.1s-0.9-3-2.3-3
		C76.7,14,75.8,15.1,75.8,17.1 M83,17.1c0,2.9-2,4.8-4.9,4.8c-2.9,0-4.9-2-4.9-4.8c0-3,2-4.9,5-4.9C81,12.2,83,14.1,83,17.1 M87,14
		c0-0.5,0-1.2-0.1-1.6h-2.3c0.1,1,0.1,2,0.1,2.9v6.4h2.4v-4.2c0-0.9,0.1-1.6,0.4-2.2c0.4-0.7,1.1-1.2,1.9-1.2c1.6,0,1.7,1.3,1.7,3.1
		v4.5h2.4v-5.4c0-2.5-0.9-4.1-3.3-4.1C88.8,12.3,87.8,12.9,87,14L87,14z M69.1,12.5h2.4v9.3h-2.4V12.5z M60.6,14
		c0-0.5,0-1.2-0.1-1.6h-2.3c0.1,1,0.1,2,0.1,2.9v6.4h2.4v-4.2c0-0.9,0.1-1.6,0.4-2.2c0.4-0.7,1.1-1.2,1.9-1.2c1.6,0,1.7,1.3,1.7,3.1
		v4.5H67v-5.4c0-2.5-0.9-4.1-3.3-4.1C62.4,12.3,61.3,12.9,60.6,14L60.6,14z M48.5,9.2v7.4c0,2.3,0.8,3.4,2.5,3.4
		c1.9,0,2.7-1,2.7-3.4V9.2h2.4v7.6c0,3.4-1.8,5.2-5.2,5.2c-3.6,0-5.1-1.8-5.1-5.2V9.2H48.5z M137.1,26.6l2.3-0.4v2.7h2.2v1.8h-2.2
		v3.6c0,1.4,0.3,2,1.4,2c0.3,0,0.6-0.1,0.9-0.1l0.1,1.9c-0.5,0.2-1,0.2-1.7,0.2c-2.1,0-3-1-3-3.5v-4.1h-1.8v-1.8h1.8V26.6z
		 M91.2,28.8h-1.8v1.8h1.8v4.1c0,2.5,0.9,3.5,3,3.5c0.6,0,1.2-0.1,1.7-0.2l-0.1-1.9c-0.3,0.1-0.6,0.1-0.9,0.1c-1.2,0-1.4-0.6-1.4-2
		v-3.6h2.2v-1.8h-2.2v-2.7l-2.3,0.4V28.8z M120.8,32.4c0-1.5-0.8-2.2-1.9-2.2c-1.1,0-2,0.7-2.1,2.2H120.8z M116.7,34.1
		c0,1.4,1.2,2.3,2.9,2.3c1,0,1.9-0.3,2.7-0.8l0,2c-0.8,0.4-1.9,0.6-3,0.6c-3,0-5-1.8-5-4.9c0-2.8,1.9-4.8,4.7-4.8
		c2.7,0,4.1,1.6,4.1,5c0,0.1,0,0.5,0,0.6H116.7z M73.7,32.4c0.1-1.4,1.1-2.2,2.1-2.2c1.2,0,1.9,0.6,1.9,2.2H73.7z M80,34.1
		c0-0.1,0-0.4,0-0.6c0-3.4-1.4-5-4.1-5c-2.8,0-4.7,2-4.7,4.8c0,3.1,2,4.9,5,4.9c1.2,0,2.2-0.2,3-0.6l0-2c-0.8,0.5-1.7,0.8-2.7,0.8
		c-1.7,0-2.8-0.9-2.9-2.3H80z M127.5,30.4c0.7-1.1,1.7-1.8,3.1-1.8c2.5,0,3.3,1.6,3.3,4.1v5.4h-2.4v-4.5c0-1.8-0.1-3.1-1.7-3.1
		c-0.8,0-1.5,0.5-1.9,1.2c-0.3,0.5-0.4,1.2-0.4,2.2v4.2h-2.4v-6.4c0-0.9,0-1.9-0.1-2.9h2.3C127.4,29.2,127.4,29.9,127.5,30.4
		L127.5,30.4z M100.2,30.4c0-0.5,0-1.2-0.1-1.6h-2.3c0.1,1,0.1,2,0.1,2.9v6.4h2.4v-4.7c0-1.7,0.9-2.9,2-2.9c1,0,1.5,0.8,1.5,2v5.6
		h2.4v-4.6c0-1.9,0.8-3,1.9-3c1,0,1.6,0.8,1.6,2.4v5.2h2.4v-5.4c0-2.3-0.7-4.1-3-4.1c-1.4,0-2.6,0.6-3.2,1.8
		c-0.3-1.2-1.4-1.8-2.6-1.8C102.1,28.6,100.9,29.3,100.2,30.4L100.2,30.4z M81.9,35.8c0.9,0.4,1.8,0.6,2.6,0.6c0.8,0,1.5-0.3,1.5-1
		c0-0.6-0.3-0.9-1.8-1.4c-1.8-0.6-2.5-1.3-2.5-2.7c0-1.8,1.5-2.8,3.7-2.8c1,0,1.8,0.1,2.5,0.4l-0.2,1.8c-0.8-0.4-1.5-0.5-2.2-0.5
		c-0.8,0-1.4,0.3-1.4,1c0,0.6,0.4,0.8,1.7,1.3c1.6,0.5,2.6,1.2,2.6,2.8c0,1.9-1.6,3-3.8,3c-1,0-1.9-0.1-2.9-0.5L81.9,35.8z
		 M63.4,28.8h-2.6l3.6,9.3h2.8l3.6-9.3h-2.4L66.6,34c-0.2,0.5-0.6,1.6-0.8,2.3h0c-0.1-0.6-0.6-1.7-0.7-2.3L63.4,28.8z M53.4,30.4
		c0.7-1.1,1.7-1.8,3.1-1.8c2.5,0,3.3,1.6,3.3,4.1v5.4h-2.4v-4.5c0-1.8-0.1-3.1-1.7-3.1c-0.8,0-1.5,0.5-1.9,1.2
		c-0.3,0.5-0.4,1.2-0.4,2.2v4.2h-2.4v-6.4c0-0.9,0-1.9-0.1-2.9h2.3C53.3,29.2,53.4,29.9,53.4,30.4L53.4,30.4z M46.2,38.1h2.5V25.5
		h-2.5V38.1z" fill="#00358E"/></g></svg>